<svg width="29" height="22" viewBox="0 0 29 22" fill="none" xmlns="http://www.w3.org/2000/svg">
<path d="M6.63812 12.7288C3.30103 13.6096 1.19996 15.7428 0.518608 18.739C0.32035 19.5963 0.627574 19.8465 1.00912 19.9649C3.63203 20.7792 8.48663 21.0684 10.3918 21.0684C12.297 21.0684 17.1516 20.7792 19.7745 19.9649C20.156 19.8465 20.4632 19.5963 20.265 18.739C19.5837 15.743 17.4822 13.6097 14.1455 12.7288L10.696 15.6412C10.5203 15.7895 10.2645 15.7895 10.0888 15.6412L6.63812 12.7288Z" fill="#79BC24"/>
<path fill-rule="evenodd" clip-rule="evenodd" d="M10.3915 0.0683594C7.48928 0.0683594 5.15283 2.44852 5.15283 5.40499V5.76579C5.15283 8.72223 7.48928 11.1024 10.3915 11.1024C13.2937 11.1024 15.6302 8.72223 15.6302 5.76579V5.40499C15.6302 2.44852 13.2937 0.0683594 10.3915 0.0683594Z" fill="#79BC24"/>
<path fill-rule="evenodd" clip-rule="evenodd" d="M23.5087 3.87762C22.847 3.87756 22.1917 4.00889 21.5803 4.2641C20.9689 4.51932 20.4134 4.89342 19.9454 5.36505C19.4775 5.83668 19.1063 6.39661 18.853 7.01285C18.5997 7.6291 18.4694 8.2896 18.4693 8.95663C18.4697 9.08075 18.4746 9.20482 18.484 9.32858L16.9976 10.5923V11.3714H19.0808C19.5124 12.1764 20.1517 12.8488 20.9311 13.3178C21.7105 13.7867 22.601 14.0347 23.5087 14.0356C24.8451 14.0356 26.1266 13.5004 27.0716 12.548C28.0165 11.5955 28.5474 10.3036 28.5474 8.95663C28.5474 7.60961 28.0165 6.31779 27.0716 5.3653C26.1266 4.41281 24.8451 3.87769 23.5087 3.87762ZM23.5087 6.00996C23.9781 6.00996 24.3585 6.39343 24.3585 6.86656C24.3585 7.33969 23.9781 7.72316 23.5087 7.72316C23.0394 7.72316 22.6589 7.33969 22.6589 6.86656C22.6589 6.39343 23.0394 6.00996 23.5087 6.00996ZM22.2795 8.28248H23.7414C24.0012 8.28248 24.2104 8.49332 24.2104 8.75516V10.7339H24.7373V11.9033H22.2795V10.7339H22.8064V9.18135L22.2795 8.94466V8.28248Z" fill="#79BC24"/>
</svg>
