<svg width="24" height="24" viewBox="0 0 24 24" fill="none" xmlns="http://www.w3.org/2000/svg">
<path d="M23.5178 21.6005H0.480342C0.216492 21.6005 0.000488281 21.8117 0.000488281 22.0803V23.5201C0.000488281 23.7842 0.216492 24 0.480342 24H23.5184C23.7825 24 23.9983 23.784 23.9983 23.5201V22.0803C23.9983 21.8115 23.7823 21.6005 23.5182 21.6005H23.5178Z" fill="#79BC24"/>
<path d="M23.705 4.83552L12.186 0.03606C12.0661 -0.01202 11.9316 -0.01202 11.8165 0.03606L0.297477 4.83552C0.119841 4.91225 0 5.08515 0 5.28197V6.72176C0 6.98585 0.216004 7.20162 0.479854 7.20162H23.5179C23.782 7.20162 23.9978 6.98561 23.9978 6.72176V5.28197C23.9978 5.08515 23.8824 4.91249 23.705 4.83552Z" fill="#79BC24"/>
<path d="M18.1322 19.2771C17.8683 19.2771 17.6523 19.4931 17.6523 19.7569V20.6401H22.8935V19.7569C22.8935 19.4931 22.6775 19.2771 22.4136 19.2771H22.0058L22.0053 9.51944H22.4132C22.677 9.51944 22.893 9.30343 22.893 9.03958V8.16138H17.6519V9.03958C17.6519 9.30367 17.8679 9.51944 18.1317 9.51944H18.5348V19.2771H18.1322Z" fill="#79BC24"/>
<path d="M2.42833 19.2771C2.16448 19.2771 1.94848 19.4931 1.94848 19.7569V20.6401H7.18964V19.7569C7.18964 19.4931 6.97364 19.2771 6.70979 19.2771H6.30668L6.30644 9.51944H6.70955C6.9734 9.51944 7.18941 9.30343 7.18941 9.03958V8.16138H1.94824V9.03958C1.94824 9.30367 2.16425 9.51944 2.4281 9.51944H2.83121V19.2771H2.42833Z" fill="#79BC24"/>
<path d="M10.2801 19.2771C10.016 19.2771 9.80028 19.4931 9.80028 19.7569V20.6401H15.0414V19.7569C15.0414 19.4931 14.8254 19.2771 14.5616 19.2771H14.1585L14.158 9.51944H14.5611C14.8252 9.51944 15.041 9.30343 15.041 9.03958V8.16138H9.7998V9.03958C9.7998 9.30367 10.0158 9.51944 10.2797 9.51944H10.6828V19.2771H10.2801Z" fill="#79BC24"/>
</svg>
