<svg width="17" height="21" viewBox="0 0 17 21" fill="none" xmlns="http://www.w3.org/2000/svg">
<path d="M8.48096 20.5C7.9504 20.4974 7.44217 20.2862 7.06607 19.9119C6.68997 19.5377 6.4762 19.0305 6.47096 18.5H10.471C10.4731 18.7674 10.4221 19.0325 10.321 19.28C10.1916 19.5767 9.99363 19.8385 9.74326 20.0437C9.49289 20.2488 9.19733 20.3915 8.88096 20.46H8.83396C8.71778 20.4842 8.59961 20.4976 8.48096 20.5ZM16.481 17.5H0.480957V15.5L2.48096 14.5V9C2.42827 7.58912 2.74689 6.18913 3.40496 4.94C3.72879 4.36727 4.17039 3.86971 4.70061 3.48015C5.23083 3.09058 5.83762 2.81787 6.48096 2.68V0.5H10.481V2.68C13.06 3.294 14.481 5.538 14.481 9V14.5L16.481 15.5V17.5Z" fill="white"/>
</svg>
