<svg width="23" height="22" viewBox="0 0 23 22" fill="none" xmlns="http://www.w3.org/2000/svg">
<path d="M21.8215 11.267L11.8258 1.16901C11.7538 1.0961 11.6683 1.03826 11.5742 0.998802C11.4801 0.959339 11.3792 0.939026 11.2773 0.939026C11.1754 0.939026 11.0745 0.959339 10.9804 0.998802C10.8863 1.03826 10.8008 1.0961 10.7289 1.16901L0.733084 11.267C0.441874 11.5614 0.276855 11.9613 0.276855 12.3783C0.276855 13.2444 0.973332 13.9485 1.82998 13.9485H2.88318V21.154C2.88318 21.5882 3.23021 21.939 3.65974 21.939H9.72419V16.4435H12.4422V21.939H18.8949C19.3244 21.939 19.6714 21.5882 19.6714 21.154V13.9485H20.7246C21.1372 13.9485 21.5328 13.7841 21.824 13.4873C22.4282 12.8739 22.4282 11.8803 21.8215 11.267Z" fill="white"/>
</svg>
