<svg width="23" height="22" viewBox="0 0 23 22" fill="none" xmlns="http://www.w3.org/2000/svg">
<path d="M21.9983 10.45L12.0025 0.352051C11.9305 0.279148 11.8451 0.221309 11.7509 0.181846C11.6568 0.142383 11.556 0.12207 11.4541 0.12207C11.3522 0.12207 11.2513 0.142383 11.1572 0.181846C11.0631 0.221309 10.9776 0.279148 10.9056 0.352051L0.909842 10.45C0.618632 10.7444 0.453613 11.1443 0.453613 11.5614C0.453613 12.4274 1.15009 13.1315 2.00673 13.1315H3.05994V20.337C3.05994 20.7712 3.40697 21.1221 3.8365 21.1221H9.90095V15.6266H12.6189V21.1221H19.0716C19.5012 21.1221 19.8482 20.7712 19.8482 20.337V13.1315H20.9014C21.314 13.1315 21.7095 12.9672 22.0007 12.6703C22.605 12.057 22.605 11.0634 21.9983 10.45Z" fill="#2D2D2D"/>
</svg>
