<svg width="24" height="25" viewBox="0 0 24 25" fill="none" xmlns="http://www.w3.org/2000/svg">
<path d="M18.5231 12.4211V2.29059C18.5231 1.58323 17.9421 0.976868 17.2094 0.976868H2.10205C1.39469 0.976868 0.78833 1.55787 0.78833 2.29059V22.3242C0.78833 22.7788 1.06623 23.2085 1.4957 23.36C1.62205 23.4106 1.7484 23.4358 1.87457 23.4358C2.17767 23.4358 2.48093 23.3094 2.70825 23.0569L5.48728 19.8485H11.0704C11.6262 22.779 14.2031 24.9769 17.2851 24.9769C20.7715 24.9769 23.6261 22.1221 23.6261 18.6358C23.6513 15.5538 21.4281 12.9769 18.523 12.4211L18.5231 12.4211ZM4.55261 4.71584C4.55261 4.69064 4.57781 4.66527 4.60319 4.66527H14.7337C14.7589 4.66527 14.7843 4.69047 14.7843 4.71584V6.33268C14.7843 6.35788 14.7591 6.38326 14.7337 6.38326H4.60319C4.57799 6.38326 4.55261 6.35806 4.55261 6.33268V4.71584ZM4.55261 9.59161C4.55261 9.56641 4.57781 9.54104 4.60319 9.54104H14.7337C14.7589 9.54104 14.7843 9.56624 14.7843 9.59161L14.7841 11.2084C14.7841 11.2336 14.7589 11.259 14.7335 11.259H4.60301C4.57782 11.259 4.55244 11.2338 4.55244 11.2084L4.55261 9.59161ZM4.60301 16.16C4.57782 16.16 4.55244 16.1348 4.55244 16.1094L4.55262 14.4928C4.55262 14.4676 4.57781 14.4422 4.60319 14.4422H12.6116C12.1569 14.9474 11.7779 15.5284 11.5 16.16L4.60301 16.16ZM17.3103 23.2084C14.784 23.2084 12.7377 21.1621 12.7377 18.6358C12.7377 16.1094 14.784 14.0632 17.3103 14.0632C19.8367 14.0632 21.8829 16.1094 21.8829 18.6358C21.8831 21.1621 19.8367 23.2084 17.3103 23.2084Z" fill="#151521"/>
<path d="M18.523 16.7663L16.7292 18.8126L15.8955 17.9789C15.5419 17.6252 14.9861 17.6252 14.6576 17.9789C14.3039 18.3326 14.3039 18.8884 14.6576 19.2168L16.1481 20.7073C16.325 20.8842 16.5269 20.96 16.7796 20.96H16.8048C17.0575 20.96 17.2849 20.8337 17.4364 20.6569L19.8618 17.9033C20.1902 17.5244 20.1397 16.9686 19.786 16.6653C19.4071 16.3621 18.8513 16.3874 18.523 16.7663L18.523 16.7663Z" fill="#151521"/>
</svg>
