<svg width="18" height="23" viewBox="0 0 18 23" fill="none" xmlns="http://www.w3.org/2000/svg">
<path d="M8.8363 12.4203C10.7296 12.4203 12.4442 11.6684 13.686 10.4526C16.0019 11.9584 17.529 14.5376 17.529 17.4663V18.4372C17.5292 19.1637 17.2242 19.8661 16.6379 20.295C14.4931 21.8638 11.8324 22.7927 8.95074 22.7927C6.06905 22.7927 3.40858 21.864 1.26354 20.295C0.677289 19.8663 0.372314 19.1639 0.372314 18.4376L0.37249 17.4662L0.372842 17.3802C0.401881 14.5442 1.86261 12.0444 4.08033 10.5422C5.3137 11.7054 6.98968 12.4203 8.83628 12.4203L8.8363 12.4203Z" fill="#151521"/>
<path d="M3.11768 5.6923C3.11768 2.5957 5.67803 0.0852661 8.83644 0.0852661C11.9949 0.0852661 14.5552 2.59548 14.5552 5.6923C14.5552 8.78876 11.9949 11.2989 8.83644 11.2989C5.67803 11.2989 3.11768 8.78867 3.11768 5.6923Z" fill="#151521"/>
</svg>
