<svg width="51" height="51" viewBox="0 0 51 51" fill="none" xmlns="http://www.w3.org/2000/svg">
<path d="M16.7947 15.9746C17.2422 14.265 18.1077 12.8633 19.3039 11.6376C20.5833 10.3259 21.215 8.71447 21.3507 6.89743C21.3705 6.79228 21.36 6.68369 21.3205 6.58425C21.281 6.48482 21.2141 6.39862 21.1276 6.33565C20.9348 6.186 20.7812 5.99173 20.68 5.76956C20.5789 5.54738 20.5332 5.30396 20.547 5.06023C20.5591 4.01866 20.547 2.97709 20.547 1.93686C20.5578 0.95577 21.2163 0.283791 22.18 0.283791C24.3124 0.278415 26.4448 0.278415 28.5772 0.283791C29.5422 0.283791 30.2155 0.96249 30.2209 1.9288C30.2209 2.97037 30.2209 4.01194 30.2209 5.05217C30.2337 5.29475 30.1892 5.53694 30.0912 5.75919C29.9931 5.98144 29.8442 6.17753 29.6564 6.33162C29.5748 6.38659 29.5098 6.4629 29.4686 6.55224C29.4274 6.64158 29.4114 6.74053 29.4226 6.83829C29.4975 8.14746 29.902 9.41647 30.5985 10.5275C30.7625 10.7842 30.8512 10.811 31.0582 10.5745C31.5682 10.0167 32.1287 9.50744 32.7327 9.05315C33.4161 8.50154 33.9023 7.74328 34.1184 6.89206C34.1869 6.6488 34.1721 6.46467 33.9517 6.27652C33.7797 6.1276 33.6443 5.94097 33.5562 5.73117C33.4681 5.52137 33.4296 5.29407 33.4437 5.06695C33.4545 4.00925 33.4437 2.95156 33.4437 1.89386C33.4376 1.67917 33.4758 1.46553 33.5557 1.26619C33.6357 1.06686 33.7558 0.886092 33.9085 0.73511C34.0613 0.584127 34.2434 0.466155 34.4437 0.388517C34.6439 0.310879 34.858 0.275232 35.0726 0.283791C37.7605 0.278415 40.4484 0.278415 43.1364 0.283791C43.3464 0.279815 43.5551 0.318072 43.7501 0.396293C43.945 0.474515 44.1223 0.591105 44.2713 0.739146C44.4204 0.887186 44.5382 1.06366 44.6177 1.25809C44.6972 1.45253 44.7369 1.66095 44.7343 1.87101C44.7451 2.94618 44.7343 4.02135 44.7343 5.09652C44.7455 5.31514 44.7073 5.53347 44.6223 5.73523C44.5374 5.93698 44.408 6.11696 44.2438 6.26174C44.1448 6.33552 44.0733 6.44027 44.0407 6.55935C44.008 6.67843 44.0162 6.80499 44.0637 6.91893C44.2914 7.78489 44.7971 8.55215 45.5031 9.10287C47.769 10.85 49.2971 13.0918 50.0094 15.8738C50.4079 17.506 50.499 19.1982 50.2782 20.8639C50.2016 21.513 49.8669 22.0735 49.414 22.5304C49.1905 22.7575 49.0163 23.0284 48.9025 23.3261C48.7887 23.6238 48.7377 23.9418 48.7528 24.2601C48.7662 25.772 48.7608 27.2827 48.7528 28.7946C48.7446 29.088 48.7955 29.38 48.9024 29.6534C49.0093 29.9267 49.17 30.1758 49.375 30.3859C49.702 30.7242 49.9584 31.1242 50.1294 31.5626C50.3004 32.001 50.3825 32.469 50.3709 32.9394C50.3615 37.3382 50.3709 41.7383 50.3709 46.1384C50.3709 48.5199 48.6238 50.2604 46.2423 50.2617C41.5075 50.2617 36.7714 50.2617 32.0352 50.2684C31.038 50.2684 30.2948 49.8733 29.7653 49.0414C29.6027 48.7874 29.4387 48.5347 29.264 48.2888C28.8756 47.7378 28.3461 47.731 27.9603 48.2753C27.7278 48.6033 27.5236 48.9473 27.2884 49.2766C27.0745 49.5849 26.789 49.8366 26.4564 50.0102C26.1238 50.1838 25.754 50.274 25.3788 50.273C25.0036 50.2721 24.6343 50.1801 24.3025 50.0049C23.9707 49.8297 23.6865 49.5765 23.4742 49.2672C23.239 48.9419 23.0334 48.5952 22.8022 48.2673C22.4286 47.7431 21.9004 47.7378 21.5281 48.2552C21.3037 48.5683 21.1034 48.8989 20.8817 49.2134C20.1533 50.2416 18.9343 50.5574 17.8188 49.9983C17.73 49.9422 17.6283 49.9097 17.5234 49.9039C17.4186 49.898 17.3139 49.9189 17.2194 49.9647C16.7424 50.1724 16.2262 50.2746 15.7061 50.2644C11.943 50.2644 8.17989 50.2644 4.41679 50.2644C3.88664 50.2675 3.36118 50.165 2.87102 49.963C2.38087 49.7609 1.93582 49.4633 1.56182 49.0876C1.18781 48.7118 0.892329 48.2654 0.692579 47.7743C0.492828 47.2832 0.392808 46.7573 0.398345 46.2271C0.398345 38.6248 0.398345 31.0157 0.398345 23.3999C0.382955 21.8822 0.816894 20.3938 1.64554 19.1221C3.14137 16.8293 4.23402 14.3725 4.78773 11.6846C5.00333 10.5999 5.13809 9.50064 5.19092 8.39595C5.19915 8.30613 5.18376 8.21571 5.14628 8.13367C5.1088 8.05163 5.05052 7.98082 4.97723 7.92825C4.79186 7.77047 4.64527 7.57217 4.54879 7.34868C4.45231 7.12519 4.40852 6.8825 4.42082 6.63939C4.43292 5.07771 4.42082 3.51602 4.42082 1.95433C4.42082 0.946363 5.08206 0.274385 6.07793 0.273041C8.73092 0.273041 11.3839 0.273041 14.0369 0.273041C15.0368 0.273041 15.7007 0.94502 15.7034 1.94627C15.7034 3.49048 15.6953 5.03739 15.7101 6.58026C15.7101 7.13934 15.5475 7.60032 15.1215 7.95782C15.06 7.99916 15.0105 8.05594 14.978 8.12247C14.9454 8.189 14.9309 8.26292 14.936 8.33681C15.0388 10.9356 15.6392 13.4905 16.7046 15.863C16.7312 15.9028 16.7614 15.9402 16.7947 15.9746ZM10.177 6.71062C11.0815 6.71062 11.9873 6.72271 12.8918 6.7254C14.1471 6.7254 14.1404 6.7254 14.1081 5.45939C14.1014 5.21613 14.0664 5.10324 13.7829 5.10727C12.408 5.12743 11.0331 5.12609 9.65825 5.13281C8.85187 5.12609 8.04549 5.11668 7.24718 5.11534C5.96235 5.11534 5.97041 5.11534 6.03761 6.42973C6.04971 6.6824 6.13303 6.73212 6.36151 6.72943C7.62886 6.71599 8.9016 6.716 10.1757 6.71062H10.177ZM24.9606 1.9167C24.1233 1.9073 23.2833 1.9073 22.4461 1.88445C22.1773 1.87773 22.1517 2.00675 22.1531 2.22179C22.1611 3.07789 22.1679 3.93399 22.1531 4.7901C22.1531 5.07098 22.2606 5.12071 22.5079 5.11802C23.6986 5.10458 24.8907 5.10593 26.0815 5.1019C26.8005 5.1019 27.5195 5.1019 28.2318 5.11534C28.4616 5.11534 28.6095 5.0898 28.6054 4.79816C28.5907 3.92862 28.5933 3.05907 28.6054 2.18953C28.6054 1.93283 28.4872 1.88445 28.2681 1.88714C27.1728 1.89654 26.068 1.9073 24.966 1.9167H24.9606ZM5.13044 48.6248C8.68835 48.6301 12.2463 48.6337 15.8042 48.6355C16.0029 48.6204 16.1996 48.5858 16.3915 48.532C16.5259 48.5038 16.5582 48.4299 16.5541 48.2807C16.5286 47.4421 16.5192 46.6035 16.5192 45.7648C16.5192 45.531 16.5004 45.4087 16.206 45.41C13.1512 45.4261 10.0977 45.4275 7.0429 45.4329C5.46867 45.4275 3.89489 45.423 2.32156 45.4194C2.18716 45.4194 2.01916 45.3495 2.00169 45.6049C1.91299 46.8884 2.29064 47.977 3.63864 48.5065C4.11843 48.6947 4.62914 48.6664 5.13044 48.6248ZM28.5006 18.8305C27.7614 18.8305 27.0222 18.8157 26.2858 18.8157C23.7188 18.8157 21.1514 18.8157 18.5835 18.8157C18.3604 18.8157 18.1185 18.7377 18.1239 19.1355C18.144 20.5279 18.1373 21.9216 18.1239 23.3139C18.1239 23.5827 18.2206 23.6553 18.4787 23.6553C21.7508 23.6445 25.0211 23.6387 28.2896 23.6378C29.5986 23.6378 30.9076 23.6378 32.2167 23.6553C32.511 23.6553 32.6373 23.5827 32.6346 23.2655C32.623 21.9055 32.623 20.5458 32.6346 19.1866C32.6346 18.9071 32.554 18.8049 32.265 18.809C31.0178 18.8305 29.7586 18.8305 28.5006 18.8305ZM28.4065 17.1868C29.6806 17.1868 30.9601 17.1868 32.2261 17.2083C32.5728 17.215 32.5473 17.0739 32.4949 16.8186C32.1982 15.3169 31.4603 13.9378 30.3754 12.8579C28.9874 11.4588 28.1102 9.63351 27.8851 7.67558C27.7655 6.68643 27.7574 6.68777 26.6943 6.74556C25.6191 6.74556 24.544 6.75631 23.4755 6.71734C23.0629 6.70255 22.9205 6.80604 22.9379 7.2267C22.931 7.54385 22.8896 7.8593 22.8143 8.16747C22.4789 10.0037 21.5875 11.6927 20.2608 13.0057C19.235 14.0532 18.5432 15.3816 18.2731 16.8226C18.222 17.0793 18.2112 17.2137 18.5526 17.2123C21.8332 17.1949 25.1273 17.1949 28.4065 17.1895V17.1868ZM8.05087 43.7879C10.7697 43.7879 13.4885 43.7879 16.2087 43.8134C16.5622 43.8134 16.5205 43.6212 16.5205 43.4008C16.5205 41.4534 16.5514 39.5033 16.5098 37.5586C16.4587 35.845 16.8215 34.1443 17.5675 32.6007C18.0675 31.5496 18.2385 30.3719 18.058 29.222C17.9102 28.1468 17.335 27.2491 17.0245 26.2451C16.9613 26.0368 16.8054 26.0731 16.6616 26.0731C15.4691 26.0731 14.2774 26.0785 13.0867 26.0892C9.49563 26.0892 5.90591 26.0892 2.31484 26.065C1.89955 26.065 2.01245 26.3244 2.01245 26.53C2.01245 30.0378 2.01245 33.5451 2.01245 37.0519V43.3954C2.01245 43.6064 1.95197 43.8174 2.31484 43.8134C4.22461 43.7905 6.13841 43.7932 8.05087 43.7879ZM10.8732 8.35563C9.63137 8.35563 8.38955 8.35563 7.14907 8.33144C6.88028 8.33144 6.81846 8.4282 6.80099 8.66877C6.75395 9.34076 6.71497 10.0127 6.61686 10.6713C6.15054 13.9245 4.9656 17.0331 3.14809 19.7712C2.26242 21.1031 1.93853 22.5788 2.00304 24.1606C2.01244 24.4079 2.08367 24.4644 2.31752 24.4644C5.94264 24.4518 9.56776 24.4447 13.1929 24.4429C14.2331 24.4429 15.2733 24.455 16.3136 24.4576C16.448 24.4576 16.6106 24.5114 16.5823 24.2426C16.4345 22.6527 16.5447 21.0561 16.5192 19.4635C16.5265 19.1805 16.4544 18.9011 16.3109 18.6571C15.5707 17.4059 14.9622 16.0812 14.4952 14.7045C13.833 12.7721 13.4426 10.757 13.3353 8.71715C13.3192 8.4282 13.2547 8.31397 12.9321 8.32741C12.2508 8.36369 11.5626 8.34756 10.8813 8.35563H10.8732ZM18.2206 48.1436C18.5432 48.7471 19.1211 48.8156 19.5283 48.2915C19.7971 47.9474 20.0054 47.5617 20.2608 47.2096C21.2257 45.8737 23.1046 45.8817 24.0682 47.2244C24.3021 47.5509 24.5077 47.8964 24.7402 48.2243C25.1192 48.7484 25.638 48.7525 26.017 48.2323C26.2629 47.8937 26.4726 47.5294 26.7199 47.1921C26.9341 46.8898 27.2179 46.6434 27.5473 46.4737C27.8767 46.3039 28.242 46.2158 28.6126 46.2167C28.9831 46.2177 29.348 46.3076 29.6766 46.479C30.0051 46.6504 30.2876 46.8982 30.5004 47.2015C30.7074 47.4851 30.9036 47.7808 31.0877 48.0778C31.3162 48.4393 31.585 48.7417 32.0608 48.6046C32.5365 48.4675 32.6414 48.0737 32.64 47.6128C32.6337 44.0871 32.6337 40.5619 32.64 37.0371C32.657 35.8752 32.4045 34.7251 31.9022 33.6772C30.7316 31.2903 30.7235 28.9169 31.8941 26.5314C32.1087 26.1418 32.2508 25.7165 32.3134 25.2761H18.429C18.533 25.7271 18.69 26.1642 18.8967 26.5784C20.039 28.9312 20.0359 31.2827 18.8872 33.6329C18.3775 34.6927 18.1186 35.8557 18.1306 37.0318C18.1306 40.5422 18.1306 44.0522 18.1306 47.5617C18.1387 47.7593 18.0634 47.9716 18.222 48.1436H18.2206ZM34.1318 48.6033C34.1837 48.6192 34.2367 48.6313 34.2904 48.6396C38.3223 48.6396 42.3542 48.649 46.378 48.6396C47.014 48.6339 47.6218 48.3759 48.0676 47.9222C48.5134 47.4686 48.7608 46.8564 48.7555 46.2204C48.7662 43.3981 48.7555 40.5758 48.7689 37.7535C48.7689 37.4027 48.6506 37.3503 48.3442 37.3503C43.7936 37.3583 39.2438 37.3583 34.6949 37.3503C34.2917 37.3503 34.2407 37.4712 34.242 37.826C34.2568 40.9991 34.2501 44.1722 34.2501 47.3453C34.2528 47.7593 34.2823 48.1799 34.1318 48.6033ZM41.5008 19.6234C43.7846 19.6234 46.0693 19.6234 48.355 19.6234C48.609 19.6234 48.7743 19.6369 48.7756 19.2726C48.7985 15.7152 47.4962 12.78 44.7007 10.549C43.5301 9.61627 42.7184 8.47121 42.4348 6.99016C42.3837 6.72137 42.2641 6.72137 42.0666 6.72137C40.0856 6.72137 38.1046 6.72137 36.1236 6.72137C35.887 6.72137 35.7983 6.77244 35.7432 7.03586C35.4902 8.33035 34.7858 9.49295 33.7555 10.3165C33.2813 10.6896 32.8324 11.0936 32.4115 11.526C31.9008 12.0636 31.8981 12.0636 32.3591 12.6577C32.4935 12.831 32.6158 13.0098 32.7381 13.1952C33.9638 15.0015 34.3724 17.0188 34.2528 19.1638C34.2326 19.528 34.3173 19.6395 34.7084 19.6368C36.9676 19.6113 39.2389 19.6234 41.5008 19.6234ZM48.3778 21.2362H47.7999C43.471 21.2362 39.1408 21.2442 34.8119 21.2254C34.3589 21.2254 34.2151 21.3289 34.2447 21.7926C34.3791 23.916 34.0821 25.9588 33.0876 27.878C32.718 28.5917 32.6333 29.4115 32.6387 30.2259C32.6387 30.5149 32.7314 30.5633 32.9948 30.4759C35.1573 29.7542 37.1033 30.1816 38.8935 31.5511C40.568 32.8359 40.7979 32.8372 42.5558 31.6519C43.9683 30.7004 45.3848 30.6573 46.8363 31.5417C47.4424 31.9113 48.0539 32.2714 48.7367 32.68C48.6865 32.2161 48.4826 31.7823 48.1574 31.4476C47.8246 31.1044 47.5637 30.6981 47.3902 30.2527C47.2166 29.8073 47.1339 29.3316 47.1468 28.8537C47.1615 27.2759 47.1468 25.6981 47.1468 24.1217C47.1419 23.8517 47.1607 23.5819 47.2032 23.3153C47.3497 22.5237 47.7824 21.8853 48.3778 21.2348V21.2362ZM41.447 35.751C43.7308 35.751 46.0156 35.751 48.3012 35.751C48.4464 35.751 48.6144 35.8155 48.7326 35.6891C48.8912 35.5198 48.7326 34.5817 48.523 34.4567C47.6037 33.9044 46.6871 33.348 45.7584 32.8117C45.0542 32.4085 44.3459 32.4596 43.6645 32.8856C43.3232 33.098 42.9926 33.3332 42.6566 33.5495C41.3516 34.3815 39.9122 34.3358 38.6623 33.4232C38.3102 33.1652 37.9715 32.8856 37.6167 32.637C36.3561 31.7419 34.9933 31.5242 33.5163 32.0147C33.14 32.1384 33.0002 32.2647 33.2246 32.676C33.6838 33.5153 33.9884 34.4303 34.1237 35.3773C34.1735 35.7308 34.3186 35.759 34.6035 35.759C36.8816 35.7416 39.165 35.7442 41.447 35.7442V35.751ZM39.1408 1.89655C37.9178 1.89655 36.6934 1.90864 35.4691 1.88848C35.1358 1.88848 35.0444 1.98659 35.0524 2.31183C35.0739 3.13299 35.0672 3.95549 35.0524 4.77666C35.0524 5.03201 35.1169 5.12609 35.3884 5.12474C37.8532 5.11668 40.3172 5.11668 42.7802 5.12474C43.049 5.12474 43.1243 5.04008 43.1202 4.77935C43.1068 3.94206 43.0987 3.10208 43.1202 2.26479C43.131 1.92611 42.9858 1.88848 42.7063 1.89117C41.5236 1.89654 40.3315 1.89655 39.1408 1.89655ZM10.1219 1.89655H7.20417C6.03224 1.89655 6.04837 1.89655 6.02821 3.05235C6.02149 3.42329 6.10884 3.52677 6.49187 3.52274C8.64221 3.50124 10.7926 3.51199 12.9321 3.51065C14.1175 3.51065 14.1041 3.51065 14.1095 2.30108C14.1095 1.97315 14.0261 1.88042 13.6955 1.8858C12.5048 1.89655 11.3127 1.89655 10.1219 1.89655Z" fill="#050505"/>
<path d="M28.1034 25.2815H32.314C32.2514 25.7219 32.1093 26.1472 31.8947 26.5368C30.7241 28.9223 30.7321 31.2957 31.9027 33.6826C32.405 34.7305 32.6576 35.8806 32.6406 37.0425C32.6406 40.5682 32.6406 44.0934 32.6406 47.6182C32.6406 48.0791 32.5492 48.4689 32.0613 48.61C31.5735 48.7511 31.3168 48.4447 31.0883 48.0832C30.9001 47.7861 30.7079 47.4905 30.501 47.2069C30.2882 46.9035 30.0056 46.6557 29.6771 46.4844C29.3486 46.313 28.9837 46.2231 28.6131 46.2221C28.2426 46.2212 27.8772 46.3093 27.5479 46.4791C27.2185 46.6488 26.9347 46.8952 26.7204 47.1975C26.4731 47.5348 26.2635 47.899 26.0175 48.2377C25.6385 48.7578 25.1198 48.7538 24.7408 48.2297C24.5056 47.9031 24.2999 47.5577 24.0688 47.2297C23.1052 45.8858 21.2263 45.8858 20.2613 47.215C20.006 47.5671 19.7936 47.9528 19.5289 48.2969C19.1257 48.8277 18.5437 48.7525 18.2212 48.149C18.3308 48.0729 18.433 47.9865 18.5263 47.891C20.2865 45.6979 21.8421 43.3483 23.1737 40.8715C25.0552 37.3194 26.5 33.6033 27.3615 29.6695C27.68 28.2167 28.0321 26.7719 28.1034 25.2815Z" fill="#D5CEC2"/>
<path d="M34.1294 48.6033C34.2772 48.1799 34.2477 47.7593 34.2477 47.3413C34.2477 44.1682 34.2544 40.9951 34.2396 37.822C34.2396 37.4672 34.2934 37.3449 34.6925 37.3463C39.2414 37.3633 43.7911 37.3633 48.3418 37.3463C48.6482 37.3463 48.7678 37.3946 48.7665 37.7495C48.7504 40.5718 48.7665 43.3941 48.753 46.2164C48.7584 46.8524 48.511 47.4646 48.0652 47.9182C47.6193 48.3718 47.0116 48.6299 46.3756 48.6355C42.3437 48.6476 38.3118 48.6355 34.288 48.6355C34.2344 48.6286 34.1814 48.6178 34.1294 48.6033Z" fill="#DFEBF8"/>
<path d="M41.5005 19.6234C39.2332 19.6234 36.9673 19.6113 34.7014 19.6342C34.3103 19.6342 34.2256 19.5253 34.2458 19.1611C34.3654 17.0108 33.9568 14.9948 32.7311 13.1926C32.6088 13.0125 32.4838 12.8337 32.3521 12.655C31.8912 12.0569 31.8938 12.061 32.4046 11.5234C32.8254 11.091 33.2743 10.6869 33.7485 10.3138C34.781 9.49261 35.4883 8.33141 35.7443 7.03723C35.7994 6.76844 35.8881 6.7214 36.1246 6.72274C38.1056 6.72902 40.0866 6.72902 42.0676 6.72274C42.2652 6.72274 42.3848 6.72274 42.4359 6.99154C42.7195 8.4699 43.5312 9.61764 44.7018 10.5503C47.4972 12.7813 48.7995 15.7165 48.7767 19.274C48.7767 19.6382 48.61 19.6248 48.356 19.6248C46.0695 19.6203 43.7843 19.6198 41.5005 19.6234Z" fill="#DFEBF8"/>
<path d="M28.1056 25.2815C28.0344 26.7719 27.6822 28.2167 27.3637 29.6642C26.5022 33.5979 25.0561 37.314 23.1759 40.8661C21.8443 43.3429 20.2887 45.6926 18.5285 47.8856C18.4352 47.9811 18.3331 48.0675 18.2234 48.1436C18.0648 47.9716 18.1361 47.7593 18.1361 47.5671C18.1361 44.0567 18.1361 40.5467 18.1361 37.0371C18.124 35.8611 18.3829 34.6981 18.8927 33.6383C20.0396 31.2863 20.0427 28.9348 18.9021 26.5838C18.6955 26.1696 18.5385 25.7325 18.4344 25.2815H28.1056Z" fill="#E7E4DC"/>
<path d="M13.1936 24.4429C9.56937 24.4482 5.94425 24.4554 2.31824 24.4644C2.08439 24.4644 2.01316 24.4079 2.00376 24.1606C1.94059 22.5788 2.26314 21.1031 3.14881 19.7712C4.9668 17.0332 6.1522 13.9246 6.61892 10.6713C6.71703 10.0087 6.75332 9.33807 6.80305 8.66877C6.82052 8.42821 6.87696 8.32606 7.15113 8.33144C8.39161 8.35294 9.63343 8.35025 10.8753 8.35563C10.8727 8.40605 10.8763 8.4566 10.886 8.50615C11.6546 10.8716 12.2387 13.2931 12.6332 15.7488C12.9097 17.5786 13.0927 19.4213 13.1815 21.2698C13.2433 22.3248 13.1936 23.3852 13.1936 24.4429Z" fill="#EBF7FD"/>
<path d="M48.3801 21.2348C47.7848 21.8853 47.352 22.5237 47.2095 23.322C47.1671 23.5886 47.1482 23.8584 47.1531 24.1284C47.1531 25.7048 47.1638 27.2826 47.1531 28.8605C47.1402 29.3383 47.223 29.814 47.3965 30.2594C47.5701 30.7049 47.8309 31.1111 48.1638 31.4543C48.4889 31.789 48.6928 32.2228 48.743 32.6867C48.0603 32.2835 47.4488 31.918 46.8426 31.5484C45.3912 30.6641 43.9746 30.7071 42.5621 31.6586C40.8042 32.844 40.5744 32.8426 38.8998 31.5578C37.1097 30.1856 35.1636 29.7582 33.0012 30.4826C32.7324 30.57 32.6464 30.5216 32.645 30.2326C32.645 29.4182 32.7243 28.5984 33.0939 27.8847C34.0884 25.9615 34.3855 23.9227 34.2511 21.7993C34.2215 21.3356 34.3653 21.2308 34.8182 21.2321C39.1471 21.2509 43.4774 21.2429 47.8063 21.2429L48.3801 21.2348ZM43.9289 27.7087C43.9467 27.0672 43.7583 26.4369 43.3913 25.9105C42.7409 24.9979 42.0675 24.1001 41.3821 23.2131C41.0139 22.736 40.4077 22.7186 40.0382 23.1876C39.3205 24.1136 38.5974 25.0382 37.9496 26.0099C37.1836 27.1644 37.3234 28.6548 38.2184 29.7488C38.6413 30.2578 39.2105 30.6244 39.8488 30.7989C40.487 30.9735 41.1636 30.9474 41.7866 30.7244C42.4096 30.5014 42.9489 30.0921 43.3314 29.5522C43.7139 29.0122 43.9211 28.3677 43.9249 27.706L43.9289 27.7087Z" fill="#C0C6CF"/>
<path d="M8.05121 43.7879C6.13875 43.7879 4.22495 43.7879 2.31249 43.8134C1.94962 43.8134 2.0101 43.6064 2.0101 43.3954V37.0519C2.0101 33.5442 2.0101 30.0369 2.0101 26.53C2.0101 26.3244 1.8972 26.0623 2.31249 26.065C5.90356 26.0838 9.49329 26.0838 13.0844 26.0892C12.9822 27.1527 12.8805 28.2154 12.7793 29.2771C10.801 29.2771 8.82265 29.2865 6.84433 29.2973C6.52585 29.2944 6.20998 29.355 5.91519 29.4755C5.62039 29.5961 5.35256 29.7742 5.12735 29.9994C4.90214 30.2246 4.72406 30.4924 4.6035 30.7872C4.48294 31.082 4.42233 31.3979 4.4252 31.7164C4.41982 33.8667 4.41982 36.013 4.4252 38.1553C4.42269 38.4737 4.48356 38.7894 4.60424 39.084C4.72493 39.3787 4.90302 39.6463 5.12816 39.8715C5.3533 40.0966 5.62098 40.2747 5.91562 40.3954C6.21025 40.5161 6.52595 40.5769 6.84433 40.5744C7.71612 40.5807 8.5879 40.5856 9.45969 40.5892C9.45439 40.757 9.40427 40.9204 9.31454 41.0623L8.05121 43.7879Z" fill="#F7D881"/>
<path d="M28.4086 17.1895C25.1226 17.1895 21.8352 17.1895 18.5479 17.2123C18.2065 17.2123 18.2173 17.0779 18.2684 16.8226C18.5405 15.3837 19.2332 14.0578 20.2588 13.0125C21.5855 11.6994 22.4769 10.0105 22.8123 8.17419C22.8876 7.86602 22.929 7.55057 22.9359 7.23342C22.9185 6.81276 23.0609 6.70927 23.4735 6.72406C24.5487 6.76303 25.6239 6.7469 26.6923 6.75228C26.9813 7.96185 27.2998 9.17141 27.5538 10.389C28.0242 12.6241 28.3871 14.8859 28.4086 17.1895Z" fill="#E7E4DC"/>
<path d="M12.782 29.2771C12.8842 28.2154 12.9859 27.1528 13.0871 26.0892C14.2787 26.0839 15.4704 26.0785 16.662 26.0731C16.8058 26.0731 16.9617 26.0368 17.0249 26.2451C17.3354 27.2491 17.9106 28.1509 18.0584 29.222C18.2389 30.3719 18.0679 31.5496 17.5679 32.6007C16.8219 34.1443 16.459 35.845 16.5102 37.5586C16.5518 39.5047 16.5182 41.4561 16.5209 43.4008C16.5209 43.6212 16.5626 43.8148 16.2091 43.8134C13.4889 43.7932 10.7701 43.7932 8.05127 43.7879L9.32535 41.069C9.41394 40.9291 9.46401 40.7682 9.47049 40.6027C10.7249 40.6027 11.9824 40.5978 13.243 40.5879C14.673 40.5812 15.7105 39.5436 15.7119 38.1096C15.7119 35.9969 15.7119 33.8838 15.7119 31.7702C15.7119 30.5606 14.9566 29.6023 13.7806 29.351C13.45 29.3014 13.1163 29.2767 12.782 29.2771Z" fill="#F0C251"/>
<path d="M13.1933 24.4429C13.1933 23.3852 13.243 22.3234 13.1825 21.2698C13.092 19.4212 12.9071 17.5785 12.6288 15.7488C12.2344 13.2931 11.6503 10.8716 10.8817 8.50616C10.872 8.45661 10.8684 8.40606 10.8709 8.35564C11.559 8.35564 12.2471 8.3637 12.9339 8.3301C13.2551 8.31397 13.3196 8.4309 13.3371 8.71985C13.4444 10.7597 13.8347 12.7748 14.4969 14.7072C14.9639 16.0839 15.5724 17.4086 16.3126 18.6598C16.4561 18.9038 16.5283 19.1832 16.5209 19.4662C16.5465 21.0588 16.4363 22.6554 16.5841 24.2453C16.6083 24.5141 16.4497 24.4603 16.3153 24.4603C15.2737 24.455 14.2335 24.4482 13.1933 24.4429Z" fill="#C9E1F4"/>
<path d="M41.4449 35.7442C39.1602 35.7442 36.8755 35.7442 34.5907 35.7442C34.3058 35.7442 34.1606 35.716 34.1109 35.3625C33.9755 34.4155 33.671 33.5005 33.2118 32.6612C32.9874 32.2499 33.1271 32.1236 33.5035 31.9999C34.9818 31.5094 36.3432 31.7311 37.6039 32.6222C37.9587 32.8749 38.2974 33.1504 38.6495 33.4084C39.8994 34.321 41.3374 34.3667 42.6437 33.5347C42.9838 33.3184 43.3157 33.0832 43.6517 32.8708C44.3331 32.4448 45.0414 32.3924 45.7456 32.7969C46.6743 33.3345 47.5909 33.8895 48.5101 34.4419C48.7184 34.5669 48.8784 35.505 48.7198 35.6743C48.6015 35.8007 48.4335 35.7362 48.2884 35.7362C46.0099 35.7442 43.7288 35.7469 41.4449 35.7442Z" fill="#77B65A"/>
<path d="M28.3005 23.6405C25.0284 23.6405 21.7581 23.6463 18.4896 23.658C18.2315 23.658 18.1334 23.58 18.1348 23.3166C18.1428 21.9243 18.1496 20.5306 18.1348 19.1382C18.1348 18.7351 18.3713 18.8184 18.5944 18.8184C21.1614 18.8184 23.7288 18.8184 26.2967 18.8184C27.0345 18.8184 27.775 18.8278 28.5115 18.8332V20.4137L20.8738 20.4284C19.7502 20.4284 19.7731 20.4284 19.7422 21.5372C19.7314 21.9686 19.8658 22.0533 20.273 22.0519C22.9865 22.0358 25.6999 22.0519 28.4134 22.0519C28.4399 22.5841 28.402 23.1175 28.3005 23.6405Z" fill="#EC492B"/>
<path d="M7.04833 45.4409C10.1032 45.4409 13.1566 45.4342 16.2115 45.4181C16.5058 45.4181 16.526 45.539 16.5246 45.7729C16.5246 46.6115 16.534 47.4502 16.5596 48.2888C16.5596 48.438 16.5313 48.5119 16.3969 48.5401C16.2037 48.5937 16.0056 48.6279 15.8056 48.6423C12.2468 48.6423 8.68886 48.6387 5.13184 48.6315C5.1735 48.4084 5.33881 48.2565 5.45305 48.0764C6.00138 47.2015 6.63439 46.3817 7.04833 45.4409Z" fill="#C9E1F4"/>
<path d="M39.1387 1.89656C40.3295 1.89656 41.5202 1.90328 42.711 1.89656C42.9905 1.89656 43.1357 1.9315 43.1249 2.27018C43.1007 3.10747 43.1088 3.94745 43.1249 4.78473C43.1249 5.04546 43.0537 5.13148 42.7849 5.13013C40.321 5.12207 37.857 5.12207 35.3931 5.13013C35.1243 5.13013 35.0531 5.0374 35.0571 4.78205C35.0692 3.96089 35.0759 3.13838 35.0571 2.31722C35.0491 1.99198 35.1404 1.8885 35.4737 1.89387C36.6914 1.89656 37.9157 1.89656 39.1387 1.89656Z" fill="#768190"/>
<path d="M28.4056 17.1895C28.3841 14.886 28.0212 12.62 27.5548 10.3796C27.3008 9.16067 26.9823 7.96052 26.6934 6.74289C27.7564 6.68509 27.7685 6.68375 27.8841 7.67291C28.1088 9.63308 28.987 11.4605 30.3772 12.8606C31.462 13.9405 32.2 15.3196 32.4966 16.8213C32.5463 17.0753 32.5719 17.2177 32.2278 17.211C30.9524 17.1895 29.6797 17.1949 28.4056 17.1895Z" fill="#D5CEC2"/>
<path d="M28.5015 20.4137V18.8305C29.7595 18.8305 31.0188 18.8305 32.2767 18.809C32.5657 18.809 32.649 18.9071 32.6463 19.1867C32.6356 20.5468 32.6356 21.9064 32.6463 23.2656C32.6463 23.5828 32.5227 23.6594 32.2283 23.6553C30.9193 23.6392 29.6103 23.6419 28.3013 23.6379C28.399 23.1148 28.4333 22.5819 28.4034 22.0507C28.8859 22.0507 29.3697 22.0399 29.8535 22.0399C31.0927 22.0399 31.0819 22.0399 31.0376 20.782C31.0268 20.4876 30.922 20.4177 30.6519 20.4218C29.9355 20.4339 29.2192 20.4191 28.5015 20.4137Z" fill="#A42C22"/>
<path d="M10.1209 1.89658C11.3117 1.89658 12.5038 1.90868 13.6945 1.88852C14.0251 1.88852 14.1098 1.97588 14.1084 2.3038C14.1084 3.51337 14.1165 3.51337 12.9311 3.51337C10.7808 3.51337 8.63718 3.50396 6.49087 3.52546C6.10784 3.52546 6.02049 3.42601 6.02721 3.05508C6.04737 1.89927 6.02721 1.89927 7.20317 1.89927H10.1209V1.89658Z" fill="#F7D881"/>
<path d="M7.04799 45.4409C6.63405 46.3911 6.00105 47.2082 5.45271 48.0764C5.33847 48.2565 5.17316 48.4084 5.1315 48.6315C4.6302 48.6691 4.1195 48.7014 3.64374 48.5146C2.29978 47.9851 1.91809 46.9018 2.00679 45.613C2.02426 45.3576 2.19494 45.4261 2.32665 45.4275C3.90088 45.4248 5.47466 45.4293 7.04799 45.4409Z" fill="#EBF7FD"/>
<path d="M26.0824 5.10191C24.8916 5.10191 23.6995 5.10191 22.5088 5.11804C22.2615 5.11804 22.1486 5.071 22.154 4.79011C22.1715 3.93401 22.1647 3.07791 22.154 2.2218C22.154 2.00677 22.1782 1.87775 22.447 1.88447C23.2843 1.90731 24.1242 1.90731 24.9615 1.91672C25.0395 2.15191 25.1107 2.3898 25.194 2.62365C25.4937 3.44884 25.9036 4.23371 26.0824 5.10191Z" fill="#EC492B"/>
<path d="M26.086 5.10193C25.9072 4.23374 25.4973 3.44886 25.2003 2.62367C25.117 2.38982 25.0457 2.15194 24.9678 1.91674C26.0712 1.90734 27.1746 1.90196 28.278 1.88718C28.497 1.88718 28.618 1.93287 28.6153 2.18957C28.6045 3.05911 28.6019 3.92865 28.6153 4.7982C28.6153 5.08984 28.4715 5.11941 28.2417 5.11538C27.524 5.10462 26.805 5.10597 26.086 5.10193Z" fill="#A42C22"/>
<path d="M9.65479 5.1328C11.0297 5.12608 12.4045 5.1328 13.7794 5.10727C14.063 5.10727 14.0979 5.21613 14.1046 5.45939C14.1369 6.7254 14.1436 6.72808 12.8884 6.7254C11.9839 6.7254 11.078 6.71599 10.1722 6.71061C10.1346 6.14078 9.70451 5.69861 9.65479 5.1328Z" fill="#F0C251"/>
<path d="M9.65798 5.13285C9.7077 5.69866 10.1378 6.14082 10.1754 6.71066C8.90267 6.71066 7.62993 6.71066 6.3572 6.72948C6.12873 6.72948 6.0454 6.68244 6.03331 6.42978C5.97014 5.11404 5.96208 5.11135 7.24287 5.11538C8.0506 5.1221 8.85429 5.1221 9.65798 5.13285Z" fill="#F7D881"/>
<path d="M43.9267 27.7087C43.923 28.3704 43.7158 29.0149 43.3332 29.5549C42.9507 30.0948 42.4114 30.5041 41.7884 30.7271C41.1654 30.9501 40.4889 30.9761 39.8506 30.8016C39.2123 30.6271 38.6431 30.2605 38.2203 29.7515C37.3306 28.6575 37.1908 27.1671 37.9515 26.0126C38.5993 25.0382 39.3223 24.1136 40.04 23.1903C40.4042 22.7212 41.0103 22.7387 41.384 23.2158C42.0694 24.1028 42.7427 25.0006 43.3932 25.9131C43.7581 26.4394 43.9451 27.0686 43.9267 27.7087ZM42.314 27.5823C42.2963 27.4786 42.2716 27.3763 42.2401 27.2759C41.9457 26.4494 41.2885 25.8688 40.8128 25.1659C40.7268 25.0396 40.6461 25.0974 40.5803 25.1914C40.1448 25.8056 39.6086 26.3513 39.2659 27.0273C39.1224 27.314 39.0731 27.6387 39.125 27.955C39.1769 28.2714 39.3273 28.5633 39.5548 28.7892C39.7765 29.0198 40.0622 29.1788 40.375 29.2456C40.6878 29.3124 41.0135 29.2841 41.31 29.1642C41.6143 29.0289 41.8716 28.8064 42.0494 28.5248C42.2272 28.2432 42.3174 27.9152 42.3086 27.5823H42.314Z" fill="#050505"/>
<path d="M12.7797 29.2771C13.1142 29.2744 13.4485 29.2969 13.7796 29.3443C14.9556 29.5956 15.7082 30.5539 15.7109 31.7634C15.7109 33.8779 15.7109 35.9911 15.7109 38.1029C15.7109 39.5369 14.672 40.5745 13.242 40.5812C11.9877 40.5874 10.7302 40.5924 9.46955 40.596C8.59687 40.596 7.72508 40.591 6.85419 40.5812C6.53581 40.5837 6.22011 40.5228 5.92548 40.4021C5.63085 40.2814 5.36316 40.1033 5.13803 39.8782C4.91289 39.6531 4.73479 39.3854 4.61411 39.0908C4.49342 38.7961 4.43256 38.4804 4.43506 38.162C4.4279 36.0117 4.4279 33.8654 4.43506 31.7231C4.43219 31.4046 4.49281 31.0888 4.61337 30.794C4.73392 30.4992 4.91201 30.2313 5.13722 30.0061C5.36243 29.7809 5.63025 29.6028 5.92505 29.4823C6.21985 29.3617 6.53571 29.3011 6.85419 29.304C8.8231 29.2865 10.8014 29.2838 12.7797 29.2771ZM12.3859 30.9261C10.5756 30.9261 8.76531 30.9127 6.95499 30.9167C6.3865 30.9167 6.04782 31.2259 6.04513 31.7688C6.03169 33.8815 6.03169 35.9938 6.04513 38.1056C6.04513 38.6351 6.36903 38.9617 6.89317 38.9671C8.01538 38.9792 9.13893 38.959 10.2611 38.9523C11.1656 38.9603 12.0715 38.9711 12.9759 38.9724C13.8159 38.9724 14.0981 38.6956 14.0995 37.8677C14.0995 36.1071 14.0995 34.3465 14.0995 32.5859C14.1049 30.9705 13.9866 30.8616 12.3859 30.9261Z" fill="#050505"/>
<path d="M28.5015 20.4137C29.2192 20.4137 29.9355 20.4338 30.6519 20.4244C30.9207 20.4244 31.0268 20.4903 31.0376 20.7846C31.0819 22.0425 31.0927 22.0399 29.8536 22.0425C29.3697 22.0425 28.8859 22.0493 28.4034 22.0533C25.69 22.0533 22.9765 22.0358 20.263 22.0533C19.8598 22.0533 19.7255 21.97 19.7322 21.5386C19.7631 20.4311 19.7402 20.4325 20.8638 20.4298L28.5015 20.4137Z" fill="#050505"/>
<path d="M42.3063 27.5823C42.3146 27.9158 42.2236 28.2443 42.0448 28.5259C41.8661 28.8076 41.6076 29.0297 41.3023 29.1642C41.0057 29.2841 40.6801 29.3124 40.3673 29.2456C40.0544 29.1788 39.7688 29.0198 39.5471 28.7892C39.3199 28.5634 39.1696 28.2718 39.1178 27.9557C39.0659 27.6396 39.115 27.3152 39.2581 27.0286C39.6009 26.3566 40.1371 25.807 40.5725 25.1928C40.6384 25.0987 40.719 25.0409 40.805 25.1672C41.2808 25.8701 41.938 26.4507 42.2323 27.2773C42.2638 27.3772 42.2885 27.4791 42.3063 27.5823Z" fill="#768190"/>
<path d="M10.2617 38.9469C9.13947 38.9536 8.01591 38.9738 6.8937 38.9617C6.36956 38.9617 6.04835 38.6298 6.04566 38.1002C6.03491 35.9875 6.03491 33.8753 6.04566 31.7634C6.04566 31.2259 6.38703 30.9141 6.95553 30.9114C8.76585 30.9114 10.5762 30.9114 12.3865 30.9208C12.3948 31.0714 12.3904 31.2225 12.373 31.3724C12.0694 32.9139 11.6877 34.439 11.2293 35.9418C10.9148 36.9444 10.5856 37.9457 10.2617 38.9469Z" fill="#E49954"/>
<path d="M10.2617 38.9469C10.5856 37.9456 10.9149 36.9444 11.2307 35.9404C11.6891 34.4376 12.0708 32.9125 12.3744 31.371C12.3917 31.2211 12.3962 31.07 12.3879 30.9194C13.9885 30.8602 14.1001 30.9691 14.1001 32.5792C14.1001 34.3398 14.1001 36.1004 14.1001 37.8609C14.1001 38.6888 13.8165 38.9684 12.9765 38.9657C12.072 38.9657 11.1662 38.9549 10.2617 38.9469Z" fill="#C16B3F"/>
</svg>
