<svg width="23" height="23" viewBox="0 0 23 23" fill="none" xmlns="http://www.w3.org/2000/svg">
<path d="M0.359375 19.5321C0.359375 21.4021 1.78937 22.8321 3.65938 22.8321H19.0594C20.9294 22.8321 22.3594 21.4021 22.3594 19.5321V10.7321H0.359375V19.5321ZM19.0594 3.03212H16.8594V1.93212C16.8594 1.27212 16.4194 0.832123 15.7594 0.832123C15.0994 0.832123 14.6594 1.27212 14.6594 1.93212V3.03212H8.05938V1.93212C8.05938 1.27212 7.61938 0.832123 6.95938 0.832123C6.29938 0.832123 5.85938 1.27212 5.85938 1.93212V3.03212H3.65938C1.78937 3.03212 0.359375 4.46212 0.359375 6.33212V8.53212H22.3594V6.33212C22.3594 4.46212 20.9294 3.03212 19.0594 3.03212Z" fill="#79BC24"/>
</svg>
