<svg width="22" height="22" viewBox="0 0 22 22" fill="none" xmlns="http://www.w3.org/2000/svg">
<path d="M21.002 16.6535C21.002 16.922 20.9523 17.2724 20.8528 17.705C20.7534 18.1375 20.6489 18.4781 20.5396 18.7267C20.3309 19.2239 19.7243 19.7509 18.72 20.3077C17.7855 20.8148 16.8607 21.0684 15.9459 21.0684C15.6774 21.0684 15.4164 21.0509 15.1629 21.0162C14.9094 20.9813 14.6236 20.9192 14.3053 20.8297C13.9871 20.7402 13.751 20.6682 13.5969 20.6135C13.4428 20.5589 13.1668 20.4569 12.7691 20.3078C12.3714 20.1587 12.1278 20.0692 12.0383 20.0393C11.0639 19.6913 10.1938 19.2786 9.42824 18.8014C8.15557 18.0159 6.8406 16.9445 5.48325 15.5872C4.12594 14.2298 3.05453 12.9147 2.26895 11.6422C1.79169 10.8765 1.37908 10.0066 1.031 9.03215C1.00112 8.94265 0.911618 8.69905 0.762496 8.30136C0.613374 7.90366 0.511423 7.62767 0.456786 7.47358C0.402148 7.31948 0.330077 7.08336 0.240576 6.76517C0.151075 6.44699 0.0889642 6.16109 0.0541006 5.90751C0.0193839 5.65395 0.00195312 5.3929 0.00195312 5.1244C0.00195312 4.20959 0.255516 3.28485 0.762639 2.35027C1.31944 1.34599 1.84646 0.73954 2.34363 0.530666C2.59207 0.421387 2.93264 0.316946 3.36521 0.217481C3.79777 0.11802 4.14817 0.0683594 4.41667 0.0683594C4.55582 0.0683594 4.66027 0.0833008 4.72985 0.113037C4.90885 0.172654 5.17239 0.550586 5.52027 1.24655C5.6297 1.43551 5.77882 1.70386 5.9678 2.05193C6.15676 2.39998 6.33078 2.71564 6.48987 2.99895C6.64895 3.2824 6.80305 3.54825 6.95217 3.79684C6.98205 3.83654 7.06906 3.9609 7.2132 4.16964C7.35734 4.37838 7.46427 4.55488 7.53386 4.69918C7.60344 4.84332 7.6383 4.98511 7.6383 5.12427C7.6383 5.3232 7.49665 5.5718 7.2132 5.87004C6.92975 6.16828 6.62157 6.44176 6.28845 6.69035C5.95535 6.93893 5.64713 7.20244 5.36371 7.48077C5.08026 7.75909 4.93861 7.98788 4.93861 8.1669C4.93861 8.2564 4.96351 8.36832 5.01317 8.5025C5.06283 8.63668 5.10516 8.73863 5.13988 8.80821C5.17474 8.87779 5.24432 8.99717 5.34862 9.16622C5.45306 9.33526 5.51019 9.42974 5.52015 9.44966C6.27585 10.8118 7.14086 11.9802 8.11525 12.9546C9.08965 13.929 10.258 14.7941 11.6202 15.5497C11.6401 15.5597 11.7344 15.6168 11.9036 15.7212C12.0727 15.8257 12.1919 15.8952 12.2616 15.93C12.3312 15.9648 12.4332 16.007 12.5673 16.0567C12.7015 16.1065 12.8134 16.1312 12.9029 16.1312C13.0819 16.1312 13.3106 15.9896 13.5891 15.7061C13.8675 15.4227 14.1311 15.1145 14.3795 14.7814C14.6281 14.4483 14.9016 14.1401 15.1998 13.8566C15.498 13.5732 15.7466 13.4315 15.9456 13.4315C16.0847 13.4315 16.2265 13.4664 16.3707 13.536C16.5148 13.6056 16.6913 13.7125 16.9002 13.8566C17.1089 14.0008 17.2333 14.0878 17.273 14.1177C17.5216 14.2668 17.7876 14.4209 18.0709 14.58C18.3543 14.7391 18.67 14.9131 19.0179 15.102C19.366 15.291 19.6343 15.4401 19.8233 15.5496C20.5194 15.8976 20.8972 16.1612 20.9568 16.34C20.9867 16.4096 21.0015 16.514 21.0015 16.6532L21.002 16.6535Z" fill="#79BC24"/>
</svg>
