<svg width="25" height="24" viewBox="0 0 25 24" fill="none" xmlns="http://www.w3.org/2000/svg">
<path d="M23.8817 11.4919L12.934 0.432182C12.8551 0.352335 12.7615 0.288988 12.6584 0.245767C12.5554 0.202545 12.4449 0.180298 12.3333 0.180298C12.2217 0.180298 12.1112 0.202545 12.0081 0.245767C11.9051 0.288988 11.8114 0.352335 11.7326 0.432182L0.784835 11.4919C0.465891 11.8143 0.285156 12.2523 0.285156 12.7091C0.285156 13.6576 1.04796 14.4287 1.98619 14.4287H3.13971V22.3205C3.13971 22.7961 3.51978 23.1803 3.99023 23.1803H10.6322V17.1614H13.609V23.1803H20.6763C21.1468 23.1803 21.5268 22.7961 21.5268 22.3205V14.4287H22.6804C23.1322 14.4287 23.5654 14.2487 23.8844 13.9236C24.5462 13.2518 24.5462 12.1636 23.8817 11.4919Z" fill="#79BC24"/>
</svg>
