<svg width="16" height="21" viewBox="0 0 16 21" fill="none" xmlns="http://www.w3.org/2000/svg">
<path d="M7.8967 0.455322C5.81361 0.45778 3.81654 1.28637 2.34358 2.75934C0.870609 4.23231 0.0420166 6.22938 0.0395591 8.31247C0.0370642 10.0148 0.593117 11.6709 1.62242 13.0268C1.62242 13.0268 1.8367 13.3089 1.8717 13.3496L7.8967 20.4553L13.9246 13.346C13.956 13.3082 14.171 13.0268 14.171 13.0268L14.1717 13.0246C15.2005 11.6693 15.7563 10.014 15.7538 8.31247C15.7514 6.22938 14.9228 4.23231 13.4498 2.75934C11.9769 1.28637 9.97979 0.45778 7.8967 0.455322ZM7.8967 11.1696C7.33161 11.1696 6.77921 11.002 6.30936 10.6881C5.8395 10.3741 5.4733 9.92792 5.25705 9.40585C5.0408 8.88377 4.98421 8.3093 5.09446 7.75506C5.2047 7.20083 5.47682 6.69174 5.8764 6.29216C6.27598 5.89258 6.78507 5.62046 7.3393 5.51022C7.89353 5.39998 8.46801 5.45656 8.99008 5.67281C9.51216 5.88906 9.95838 6.25527 10.2723 6.72512C10.5863 7.19498 10.7538 7.74738 10.7538 8.31247C10.7529 9.06994 10.4516 9.79611 9.91596 10.3317C9.38035 10.8673 8.65417 11.1687 7.8967 11.1696Z" fill="#79BC24"/>
</svg>
