<svg width="25" height="25" viewBox="0 0 25 25" fill="none" xmlns="http://www.w3.org/2000/svg">
<path d="M12.8774 1.73163C10.6732 1.73423 8.56006 2.61248 7.00146 4.17371C5.44285 5.73495 4.56609 7.85168 4.56349 10.0596C4.56085 11.8639 5.14923 13.6193 6.23837 15.0564C6.23837 15.0564 6.46511 15.3554 6.50215 15.3986L12.8774 22.9301L19.2558 15.3948C19.289 15.3547 19.5165 15.0564 19.5165 15.0564L19.5173 15.0541C20.6059 13.6176 21.194 11.8631 21.1914 10.0596C21.1888 7.85168 20.312 5.73495 18.7534 4.17371C17.1948 2.61248 15.0816 1.73423 12.8774 1.73163ZM12.8774 13.088C12.2795 13.088 11.695 12.9103 11.1978 12.5776C10.7006 12.2448 10.3131 11.7719 10.0843 11.2185C9.85549 10.6651 9.79562 10.0562 9.91228 9.4688C10.0289 8.88135 10.3169 8.34175 10.7397 7.91823C11.1625 7.49471 11.7012 7.20629 12.2876 7.08944C12.8741 6.97259 13.482 7.03256 14.0344 7.26177C14.5868 7.49098 15.059 7.87913 15.3912 8.37714C15.7234 8.87515 15.9007 9.46065 15.9007 10.0596C15.8997 10.8625 15.5809 11.6322 15.0141 12.1999C14.4473 12.7676 13.679 13.087 12.8774 13.088Z" fill="black"/>
</svg>
