<svg width="25" height="25" viewBox="0 0 25 25" fill="none" xmlns="http://www.w3.org/2000/svg">
<path d="M24.4669 1.2718V19.8208C24.4669 19.9607 24.3901 20.1088 24.2639 20.1774C23.965 20.3364 23.6633 20.4955 23.3643 20.6518C22.0643 21.3375 20.7615 22.0259 19.4614 22.7144C18.6386 23.1477 17.8186 23.5838 16.9957 24.0172C16.7242 24.1625 16.3759 23.9842 16.3759 23.6606C16.3759 23.6496 16.3759 23.6387 16.3759 23.6277C16.3704 23.3781 16.3759 23.1258 16.3759 22.8734V20.6436H8.55914C8.11208 20.6436 7.73633 20.2651 7.73633 19.8208V13.8993C7.73633 13.4385 8.11482 13.0957 8.55914 13.0765C9.00346 13.0573 9.38196 13.4687 9.38196 13.8993V18.998H16.3759V4.32445C16.3759 4.18457 16.4527 4.03646 16.5789 3.96789C16.8778 3.80882 17.1795 3.64974 17.4785 3.4934C18.5975 2.90098 19.7165 2.31129 20.8383 1.71887H9.38196V6.29646C9.38196 6.75724 9.00346 7.10008 8.55914 7.11928C8.11482 7.13847 7.73633 6.72707 7.73633 6.29646V0.896051C7.73633 0.448988 8.11482 0.0732353 8.55914 0.0732353C8.57011 0.0732353 8.57834 0.0732353 8.58931 0.0732353C9.28596 0.0622644 9.98536 0.0732353 10.6847 0.0732353H24.0829C24.1625 0.075978 24.2338 0.106148 24.2969 0.152774C24.2996 0.155517 24.3051 0.158259 24.3078 0.161002C24.349 0.191172 24.3846 0.22957 24.4121 0.278939C24.4285 0.306366 24.4422 0.339279 24.4505 0.369449C24.4505 0.372192 24.4532 0.374934 24.4532 0.377677C24.4642 0.413332 24.4696 0.448988 24.4696 0.484643C24.4696 0.495614 24.4696 0.506585 24.4696 0.517555C24.4724 0.767143 24.4669 1.01947 24.4669 1.2718Z" fill="#79BC24"/>
<path d="M10.9759 9.14891V11.1566C10.9759 11.3787 10.7867 11.568 10.5645 11.568H6.31328V13.9459C6.31328 14.2284 5.95125 14.4972 5.69343 14.3025C5.49047 14.1461 5.28476 13.9898 5.0818 13.8362C4.19042 13.156 3.29904 12.4731 2.40765 11.7929C1.84814 11.365 1.28862 10.9372 0.72911 10.5093C0.468552 10.3091 0.468552 9.99916 0.72911 9.79894C0.932071 9.6426 1.13778 9.48627 1.34074 9.33268C2.23212 8.65248 3.1235 7.96954 4.01489 7.28935C4.5744 6.86149 5.13391 6.43362 5.69343 6.00576C5.95125 5.80828 6.31328 6.07707 6.31328 6.36231V8.74025H10.5645C10.7867 8.72653 10.9759 8.93224 10.9759 9.14891Z" fill="#79BC24"/>
</svg>
