<svg width="19" height="24" viewBox="0 0 19 24" fill="none" xmlns="http://www.w3.org/2000/svg">
<path d="M9.38648 12.5622C11.3042 12.5622 13.0408 11.8007 14.2986 10.5693C16.6443 12.0945 18.1911 14.7069 18.1911 17.6733V18.6567C18.1913 19.3926 17.8824 20.104 17.2886 20.5384C15.1162 22.1274 12.4212 23.0683 9.50239 23.0683C6.58359 23.0683 3.88885 22.1277 1.71618 20.5384C1.12238 20.1042 0.813477 19.3928 0.813477 18.657L0.813655 17.6732L0.814011 17.586C0.843424 14.7135 2.32297 12.1815 4.56926 10.66C5.81851 11.8381 7.51608 12.5623 9.38647 12.5623L9.38648 12.5622Z" fill="#79BC24"/>
<path d="M3.59375 5.74761C3.59375 2.61113 6.18709 0.0683594 9.38618 0.0683594C12.5853 0.0683594 15.1786 2.6109 15.1786 5.74761C15.1786 8.88396 12.5853 11.4264 9.38618 11.4264C6.18709 11.4264 3.59375 8.88387 3.59375 5.74761Z" fill="#79BC24"/>
</svg>
