<svg width="24" height="25" viewBox="0 0 24 25" fill="none" xmlns="http://www.w3.org/2000/svg">
<path d="M18.6488 11.6245V1.49402C18.6488 0.786656 18.0678 0.180298 17.3351 0.180298H2.22779C1.52042 0.180298 0.914062 0.761303 0.914062 1.49402V21.5276C0.914062 21.9823 1.19197 22.4119 1.62143 22.5635C1.74778 22.614 1.87413 22.6392 2.0003 22.6392C2.3034 22.6392 2.60666 22.5129 2.83398 22.2604L5.61301 19.0519H11.1961C11.7519 21.9825 14.3288 24.1803 17.4109 24.1803C20.8972 24.1803 23.7519 21.3255 23.7519 17.8393C23.7771 14.7572 21.5539 12.1804 18.6487 11.6246L18.6488 11.6245ZM4.67835 3.91927C4.67835 3.89407 4.70355 3.8687 4.72892 3.8687H14.8594C14.8846 3.8687 14.91 3.8939 14.91 3.91927V5.53611C14.91 5.56131 14.8848 5.58669 14.8594 5.58669H4.72892C4.70372 5.58669 4.67835 5.56149 4.67835 5.53611V3.91927ZM4.67835 8.79504C4.67835 8.76985 4.70355 8.74447 4.72892 8.74447H14.8594C14.8846 8.74447 14.91 8.76967 14.91 8.79504L14.9098 10.4119C14.9098 10.4371 14.8846 10.4625 14.8592 10.4625H4.72875C4.70355 10.4625 4.67817 10.4373 4.67817 10.4119L4.67835 8.79504ZM4.72875 15.3634C4.70355 15.3634 4.67817 15.3382 4.67817 15.3129L4.67835 13.6962C4.67835 13.671 4.70355 13.6456 4.72892 13.6456H12.7373C12.2827 14.1508 11.9036 14.7319 11.6257 15.3634L4.72875 15.3634ZM17.4361 22.4118C14.9098 22.4118 12.8635 20.3656 12.8635 17.8392C12.8635 15.3129 14.9097 13.2666 17.4361 13.2666C19.9624 13.2666 22.0087 15.3129 22.0087 17.8392C22.0089 20.3655 19.9624 22.4118 17.4361 22.4118Z" fill="#79BC24"/>
<path d="M18.6487 15.9697L16.8549 18.016L16.0213 17.1823C15.6676 16.8287 15.1118 16.8287 14.7833 17.1823C14.4296 17.536 14.4296 18.0918 14.7833 18.4203L16.2738 19.9107C16.4507 20.0877 16.6527 20.1634 16.9054 20.1634H16.9306C17.1833 20.1634 17.4106 20.0371 17.5621 19.8603L19.9875 17.1067C20.316 16.7278 20.2654 16.172 19.9117 15.8688C19.5328 15.5655 18.977 15.5909 18.6487 15.9697L18.6487 15.9697Z" fill="#79BC24"/>
</svg>
