<svg width="63" height="48" viewBox="0 0 63 48" fill="none" xmlns="http://www.w3.org/2000/svg">
<path d="M48.4846 8.31525V39.6325C48.4846 43.0785 51.2157 45.9616 54.6614 46.0191C58.1811 46.0778 61.0529 43.2423 61.0529 39.7358V12.5047C61.0529 10.191 59.1773 8.31525 56.8634 8.31525H48.4846Z" fill="#D9DCDF"/>
<path d="M56.8636 8.31528H33.8218V31.3571H52.6742V12.5048C52.6742 10.1909 54.5498 8.31528 56.8636 8.31528Z" fill="#F6F6F7"/>
<path d="M48.4844 39.7359V38.9504V8.31522V0.983826H13.9218H1.35352V39.7359C1.35352 43.2066 4.16701 46.02 7.6376 46.02H54.7686C51.2979 46.02 48.4844 43.2066 48.4844 39.7359Z" fill="#F6F6F7"/>
<path d="M48.4845 0.983826H1.35352V16.6942H48.4845V0.983826Z" fill="#FF8C78"/>
<path d="M20.2062 20.8836H7.63794V31.3572H20.2062V20.8836Z" fill="#8E959F"/>
<path d="M61.0529 26.5786C61.5954 26.5786 62.0349 26.1391 62.0349 25.5967V12.5047C62.0349 9.6533 59.715 7.33347 56.8636 7.33347H49.4667V0.983865C49.4667 0.441423 49.0272 0.00195313 48.4848 0.00195313H1.35374C0.811296 0.00195312 0.371826 0.441423 0.371826 0.983865V30.8335C0.371826 31.3759 0.811296 31.8154 1.35374 31.8154C1.89618 31.8154 2.33565 31.3759 2.33565 30.8335V17.676H47.5029V39.6325V39.736C47.5029 41.8253 48.3893 43.7114 49.8057 45.0381H7.63783C4.71413 45.0381 2.33565 42.6595 2.33565 39.7358V36.0701C2.33565 35.5277 1.89618 35.0882 1.35374 35.0882C0.811296 35.0882 0.371826 35.5278 0.371826 36.0703V39.736C0.371826 43.7425 3.6313 47.002 7.63783 47.002H54.7689C54.7689 47.002 54.769 47.002 54.7691 47.002C54.7695 47.002 54.7701 47.002 54.7704 47.002C56.6888 47.002 58.4932 46.2642 59.8633 44.9169C61.2636 43.5397 62.0349 41.6998 62.0349 39.736V30.8335C62.0349 30.291 61.5954 29.8516 61.0529 29.8516C60.5105 29.8516 60.071 30.291 60.071 30.8335V39.736C60.071 41.169 59.5082 42.5118 58.4863 43.5167C57.4757 44.5109 56.1416 45.0476 54.7231 45.037C54.5182 45.0354 54.3135 45.0214 54.1103 44.9959C51.5028 44.6628 49.4666 42.369 49.4666 39.6326V32.3392H52.6741C53.2166 32.3392 53.656 31.8997 53.656 31.3572V12.5047C53.656 10.736 55.0949 9.29717 56.8636 9.29717C58.6323 9.29717 60.0712 10.736 60.0712 12.5047V25.5967C60.071 26.139 60.5106 26.5786 61.0529 26.5786ZM2.33565 15.7123V1.96566H47.5029V15.7122H2.33565V15.7123ZM51.6922 12.5047V30.3752H49.4666V9.29717H52.8097C52.1104 10.1794 51.6922 11.2941 51.6922 12.5047Z" fill="black"/>
<path d="M13.9216 4.19128C13.3792 4.19128 12.9397 4.63075 12.9397 5.1732V9.85043L8.38293 4.53416C7.80194 3.85647 6.65552 4.28269 6.65552 5.1732V12.5047C6.65552 13.0472 7.09499 13.4866 7.63743 13.4866C8.17987 13.4866 8.61934 13.0472 8.61934 12.5047V7.82748L13.1761 13.1436C13.7577 13.8222 14.9036 13.3943 14.9036 12.5046V5.17307C14.9034 4.63087 14.464 4.19128 13.9216 4.19128Z" fill="black"/>
<path d="M22.301 6.15511C22.8434 6.15511 23.2829 5.71564 23.2829 5.1732C23.2829 4.63075 22.8434 4.19128 22.301 4.19128H17.0642C16.5217 4.19128 16.0823 4.63075 16.0823 5.1732V12.5047C16.0823 13.0472 16.5217 13.4866 17.0642 13.4866H22.301C22.8434 13.4866 23.2829 13.0472 23.2829 12.5047C23.2829 11.9623 22.8434 11.5228 22.301 11.5228H18.0461V9.29715H20.2062C20.7487 9.29715 21.1881 8.85768 21.1881 8.31524C21.1881 7.7728 20.7487 7.33333 20.2062 7.33333H18.0461V6.15511H22.301Z" fill="black"/>
<path d="M34.0917 4.22916C33.5704 4.07945 33.0267 4.38199 32.878 4.90335L31.5722 9.47304L30.5442 6.90307C30.3949 6.5302 30.034 6.28584 29.6325 6.28584C29.2309 6.28584 28.87 6.53032 28.7208 6.90307L27.6927 9.47304L26.387 4.90335C26.238 4.38187 25.6941 4.07957 25.1732 4.22916C24.6519 4.37813 24.3499 4.92154 24.499 5.44291L26.5938 12.7744C26.7091 13.1781 27.0684 13.4638 27.4876 13.4854C27.9092 13.5088 28.2935 13.2593 28.4496 12.8693L29.6326 9.91167L30.8156 12.8693C30.9655 13.2435 31.3274 13.4866 31.7271 13.4866C31.7438 13.4866 31.7606 13.4862 31.7775 13.4852C32.1969 13.4638 32.5562 13.1781 32.6714 12.7743L34.7662 5.44279C34.9151 4.92166 34.6131 4.37825 34.0917 4.22916Z" fill="black"/>
<path d="M42.2009 6.15511C42.7433 6.15511 43.1828 5.71564 43.1828 5.1732C43.1828 4.63075 42.7433 4.19128 42.2009 4.19128H36.9641C36.4216 4.19128 35.9822 4.63075 35.9822 5.1732V9.36267C35.9822 9.90511 36.4216 10.3446 36.9641 10.3446H41.219V11.5228H36.9641C36.4216 11.5228 35.9822 11.9623 35.9822 12.5047C35.9822 13.0472 36.4216 13.4866 36.9641 13.4866H42.2009C42.7433 13.4866 43.1828 13.0472 43.1828 12.5047V9.36267C43.1828 8.82023 42.7433 8.38076 42.2009 8.38076H37.946V6.15511H42.2009Z" fill="black"/>
<path d="M20.2057 32.339C20.7482 32.339 21.1876 31.8995 21.1876 31.3571V20.8835C21.1876 20.3411 20.7482 19.9016 20.2057 19.9016H7.63743C7.09499 19.9016 6.65552 20.3411 6.65552 20.8835V31.3571C6.65552 31.8995 7.09499 32.339 7.63743 32.339H20.2057ZM8.61934 21.8654H19.2238V30.3752H8.61934V21.8654Z" fill="black"/>
<path d="M27.5373 27.1023H42.2002C42.7427 27.1023 43.1822 26.6628 43.1822 26.1203C43.1822 25.5779 42.7427 25.1384 42.2002 25.1384H27.5373C26.9949 25.1384 26.5554 25.5779 26.5554 26.1203C26.5554 26.6628 26.9949 27.1023 27.5373 27.1023Z" fill="black"/>
<path d="M27.5373 21.8654H42.2002C42.7427 21.8654 43.1822 21.426 43.1822 20.8835C43.1822 20.3411 42.7427 19.9016 42.2002 19.9016H27.5373C26.9949 19.9016 26.5554 20.3411 26.5554 20.8835C26.5554 21.426 26.9949 21.8654 27.5373 21.8654Z" fill="black"/>
<path d="M27.5373 32.339H42.2002C42.7427 32.339 43.1822 31.8996 43.1822 31.3571C43.1822 30.8147 42.7427 30.3752 42.2002 30.3752H27.5373C26.9949 30.3752 26.5554 30.8147 26.5554 31.3571C26.5554 31.8996 26.9949 32.339 27.5373 32.339Z" fill="black"/>
<path d="M27.5373 37.5758H42.2002C42.7427 37.5758 43.1822 37.1364 43.1822 36.5939C43.1822 36.0515 42.7427 35.612 42.2002 35.612H27.5373C26.9949 35.612 26.5554 36.0515 26.5554 36.5939C26.5554 37.1364 26.9949 37.5758 27.5373 37.5758Z" fill="black"/>
<path d="M5.60889 36.5939C5.60889 37.1364 6.04836 37.5758 6.5908 37.5758H21.2537C21.7962 37.5758 22.2356 37.1364 22.2356 36.5939C22.2356 36.0515 21.7962 35.612 21.2537 35.612H6.5908C6.04836 35.612 5.60889 36.0515 5.60889 36.5939Z" fill="black"/>
<path d="M6.5908 42.8126H21.2537C21.7962 42.8126 22.2356 42.3731 22.2356 41.8307C22.2356 41.2883 21.7962 40.8488 21.2537 40.8488H6.5908C6.04836 40.8488 5.60889 41.2883 5.60889 41.8307C5.60889 42.3731 6.04836 42.8126 6.5908 42.8126Z" fill="black"/>
<path d="M27.5373 42.8126H42.2002C42.7427 42.8126 43.1822 42.3731 43.1822 41.8307C43.1822 41.2883 42.7427 40.8488 42.2002 40.8488H27.5373C26.9949 40.8488 26.5554 41.2883 26.5554 41.8307C26.5554 42.3731 26.9949 42.8126 27.5373 42.8126Z" fill="black"/>
</svg>
