<svg width="25" height="26" viewBox="0 0 25 26" fill="none" xmlns="http://www.w3.org/2000/svg">
<path d="M20.9008 12.054H22.9163C22.9163 6.87551 19.0132 2.96994 13.8364 2.96994V4.98884C17.9299 4.98884 20.9008 7.95966 20.9008 12.054Z" fill="black"/>
<path d="M13.8464 9.02667C15.9657 9.02667 16.8696 9.93215 16.8696 12.055H18.8851C18.8851 8.79954 17.0964 7.00777 13.8464 7.00777V9.02667ZM17.2949 14.5211C17.1012 14.3448 16.8468 14.2508 16.5852 14.2589C16.3237 14.267 16.0755 14.3766 15.8931 14.5645L13.4816 17.0488C12.9011 16.9377 11.7341 16.5733 10.5329 15.3731C9.33163 14.1688 8.96783 12.9968 8.86 12.4194L11.3381 10.0028C11.5259 9.82023 11.6355 9.57159 11.6436 9.30953C11.6517 9.04746 11.5576 8.79252 11.3814 8.59866L7.65776 4.49726C7.48144 4.3028 7.23639 4.18484 6.97465 4.16844C6.71291 4.15205 6.4551 4.2385 6.25597 4.40944L4.06915 6.28803C3.89492 6.46318 3.79093 6.6963 3.7769 6.94316C3.76178 7.19553 3.47357 13.1735 8.10117 17.8109C12.1382 21.8538 17.1951 22.1495 18.5878 22.1495C18.7914 22.1495 18.9164 22.1435 18.9496 22.1415C19.196 22.1276 19.4286 22.023 19.6026 21.8477L21.4771 19.6562C21.6478 19.4569 21.7343 19.1987 21.7181 18.9365C21.702 18.6743 21.5844 18.4288 21.3904 18.252L17.2949 14.5211Z" fill="black"/>
</svg>
