<svg width="25" height="24" viewBox="0 0 25 24" fill="none" xmlns="http://www.w3.org/2000/svg">
<path d="M20.2177 16.5756C20.2177 16.9691 19.8986 17.2882 19.5051 17.2882C19.1116 17.2882 18.7925 16.9691 18.7925 16.5756C18.7925 16.1821 19.1116 15.863 19.5051 15.863C19.8986 15.863 20.2177 16.1821 20.2177 16.5756Z" fill="#79BC24"/>
<path d="M22.2512 14.7719H16.7574C16.6558 14.7719 16.5728 14.8549 16.5728 14.9565V18.341C16.5728 18.4427 16.6558 18.5257 16.7574 18.5257H19.2531V17.7653C18.7032 17.6491 18.2889 17.1599 18.2889 16.5756C18.2889 15.9052 18.8345 15.3596 19.5048 15.3596C20.1752 15.3596 20.7207 15.9052 20.7207 16.5756C20.7207 17.1599 20.3065 17.6491 19.7564 17.7653V18.5257H22.2512C22.3533 18.5257 22.4369 18.4427 22.4369 18.341V14.9565C22.4369 14.8549 22.3533 14.7719 22.2512 14.7719H22.2512Z" fill="#79BC24"/>
<path d="M21.2848 12.805C21.2848 11.8226 20.4861 11.0234 19.5047 11.0234C18.5228 11.0234 17.7236 11.8226 17.7236 12.805V14.2686H21.2848V12.805Z" fill="#79BC24"/>
<path d="M24.0686 0.0684672H6.19238V20.431H19.0408C19.1796 20.431 19.2925 20.5437 19.2925 20.6827C19.2925 21.3228 19.5396 21.9228 19.989 22.3716C20.4424 22.8201 21.0429 23.0676 21.6779 23.0676C22.996 23.0676 24.0685 21.9976 24.0685 20.6825V0.0683594L24.0686 0.0684672ZM8.5798 2.72177H21.9387C22.0775 2.72177 22.1904 2.83446 22.1904 2.97348C22.1904 3.11232 22.0777 3.22519 21.9387 3.22519H8.5798C8.44096 3.22519 8.32809 3.1125 8.32809 2.97348C8.32809 2.83464 8.44043 2.72177 8.5798 2.72177ZM8.5798 5.20711H18.9352C19.074 5.20711 19.1869 5.31979 19.1869 5.45882C19.1869 5.59766 19.0742 5.71053 18.9352 5.71053L8.5798 5.71035C8.44096 5.71035 8.32809 5.59766 8.32809 5.45864C8.32809 5.3198 8.44043 5.20711 8.5798 5.20711V5.20711ZM8.5798 7.69226H21.6794C21.8182 7.69226 21.9311 7.80495 21.9311 7.94397C21.9311 8.08281 21.8184 8.19568 21.6794 8.19568L8.5798 8.19551C8.44096 8.19551 8.32809 8.08282 8.32809 7.9438C8.32809 7.80495 8.44043 7.69226 8.5798 7.69226ZM8.5798 10.1779H16.8129C16.9517 10.1779 17.0646 10.2906 17.0646 10.4296C17.0646 10.5685 16.9519 10.6813 16.8129 10.6813L8.5798 10.6812C8.44096 10.6812 8.32809 10.5685 8.32809 10.4294C8.32809 10.2906 8.44043 10.1779 8.5798 10.1779ZM13.9127 13.1668H8.5798C8.44096 13.1668 8.32809 13.0541 8.32809 12.9151C8.32809 12.7763 8.44078 12.6634 8.5798 12.6634H13.9132C14.052 12.6634 14.1649 12.7761 14.1649 12.9151C14.1647 13.0541 14.052 13.1668 13.913 13.1668H13.9127ZM22.9398 18.3412C22.9398 18.7206 22.6309 19.0291 22.2509 19.0291H16.7571C16.3776 19.0291 16.0691 18.7205 16.0691 18.3412V14.9566C16.0691 14.5771 16.3777 14.2687 16.7571 14.2687H17.2201V12.8052C17.2201 11.5454 18.2449 10.5203 19.5045 10.5203C20.7637 10.5203 21.7877 11.5453 21.7877 12.8052V14.2687H22.2508C22.6308 14.2687 22.9397 14.5773 22.9397 14.9566L22.9398 18.3412Z" fill="#79BC24"/>
<path d="M19.6343 22.7291C19.1492 22.2439 18.8718 21.6129 18.8139 20.9348H0.934082C1.06187 22.1305 2.06749 23.0682 3.29899 23.0682L20.0505 23.0684C19.9041 22.9682 19.7637 22.8569 19.6343 22.7291L19.6343 22.7291Z" fill="#79BC24"/>
</svg>
