<svg width="24" height="28" viewBox="0 0 24 28" fill="none" xmlns="http://www.w3.org/2000/svg">
<path fill-rule="evenodd" clip-rule="evenodd" d="M1.6835 0.333252C0.943388 0.333252 0.333496 0.943143 0.333496 1.68325V25.9833C0.333496 26.7234 0.943388 27.3333 1.6835 27.3333H22.3835C23.1236 27.3333 23.7335 26.7234 23.7335 25.9833V1.68325C23.7335 0.943143 23.1236 0.333252 22.3835 0.333252H1.6835ZM12.0335 3.03325C14.2648 3.03325 16.0835 4.85192 16.0835 7.08325C16.0835 9.31458 14.2648 11.1333 12.0335 11.1333C9.80217 11.1333 7.9835 9.31458 7.9835 7.08325C7.9835 4.85192 9.80217 3.03325 12.0335 3.03325ZM12.0335 3.93325C10.2885 3.93325 8.8835 5.33828 8.8835 7.08325C8.8835 8.82822 10.2885 10.2333 12.0335 10.2333C13.7785 10.2333 15.1835 8.82822 15.1835 7.08325C15.1835 5.33828 13.7785 3.93325 12.0335 3.93325ZM4.3835 12.9333C5.12381 12.9333 5.7335 13.5429 5.7335 14.2833C5.7335 15.0236 5.12381 15.6333 4.3835 15.6333C3.64318 15.6333 3.0335 15.0236 3.0335 14.2833C3.0335 13.5429 3.64318 12.9333 4.3835 12.9333ZM7.5335 14.7333H20.5835C20.7028 14.7333 20.8173 14.7807 20.9017 14.865C20.9861 14.9494 21.0335 15.0639 21.0335 15.1833C21.0335 15.3026 20.9861 15.4171 20.9017 15.5015C20.8173 15.5858 20.7028 15.6333 20.5835 15.6333H7.5335C7.28499 15.6333 7.0835 15.4318 7.0835 15.1833C7.0835 14.9347 7.28499 14.7333 7.5335 14.7333ZM4.3835 17.4333C5.12381 17.4333 5.7335 18.0429 5.7335 18.7833C5.7335 19.5236 5.12381 20.1333 4.3835 20.1333C3.64318 20.1333 3.0335 19.5236 3.0335 18.7833C3.0335 18.0429 3.64318 17.4333 4.3835 17.4333ZM7.5335 19.2333H20.5835C20.7028 19.2333 20.8173 19.2807 20.9017 19.365C20.9861 19.4494 21.0335 19.5639 21.0335 19.6833C21.0335 19.8026 20.9861 19.9171 20.9017 20.0015C20.8173 20.0858 20.7028 20.1333 20.5835 20.1333H7.5335C7.28499 20.1333 7.0835 19.9318 7.0835 19.6833C7.0835 19.4347 7.28499 19.2333 7.5335 19.2333ZM4.3835 21.9333C5.12381 21.9333 5.7335 22.5429 5.7335 23.2833C5.7335 24.0236 5.12381 24.6333 4.3835 24.6333C3.64318 24.6333 3.0335 24.0236 3.0335 23.2833C3.0335 22.5429 3.64318 21.9333 4.3835 21.9333ZM7.5335 23.7333H20.5835C20.7028 23.7333 20.8173 23.7807 20.9017 23.865C20.9861 23.9494 21.0335 24.0639 21.0335 24.1833C21.0335 24.3026 20.9861 24.4171 20.9017 24.5015C20.8173 24.5858 20.7028 24.6333 20.5835 24.6333H7.5335C7.28499 24.6333 7.0835 24.4318 7.0835 24.1833C7.0835 23.9348 7.28499 23.7333 7.5335 23.7333Z" fill="#151521"/>
<path d="M13.5639 6.22301L13.4432 6.63494H11.142L11.2628 6.22301H13.5639ZM12.4844 9L11.1847 7.40909L11.1776 7.1108H11.8239C11.992 7.1108 12.1352 7.08712 12.2536 7.03977C12.3719 6.99124 12.4625 6.91903 12.5252 6.82315C12.5879 6.72609 12.6193 6.60417 12.6193 6.45739C12.6193 6.24077 12.5542 6.0709 12.424 5.9478C12.2938 5.82351 12.0938 5.76136 11.8239 5.76136H11.142L11.2628 5.36364H11.8239C12.1127 5.36364 12.3494 5.41158 12.5341 5.50746C12.7199 5.60215 12.8572 5.73236 12.946 5.89808C13.036 6.06262 13.081 6.24905 13.081 6.45739C13.081 6.6456 13.0395 6.81901 12.9567 6.97763C12.875 7.13506 12.7436 7.26172 12.5625 7.3576C12.3826 7.45348 12.1446 7.50142 11.8487 7.50142H11.8381L13.0384 8.97159V9H12.4844ZM13.5639 5.36364L13.4432 5.77557L11.6321 5.76136L11.7528 5.36364H13.5639Z" fill="white"/>
</svg>
