<svg width="25" height="25" viewBox="0 0 25 25" fill="none" xmlns="http://www.w3.org/2000/svg">
<path fill-rule="evenodd" clip-rule="evenodd" d="M1.07818 7.57686L4.54423 5.57593L4.08139 4.77449C3.84481 4.36451 3.98455 3.83951 4.39453 3.6024L7.46182 1.8313C7.87197 1.59436 8.39889 1.73446 8.63605 2.14497L9.09784 2.94641L12.5639 0.945124C13.1339 0.615964 13.8949 0.586948 14.1629 1.05087L14.9632 2.43747C15.0095 2.5174 14.9944 2.61905 14.8957 2.67602L1.41117 10.4617C1.31272 10.5187 1.21731 10.4811 1.1712 10.4008L0.370483 9.01439C0.105235 8.55474 0.508446 7.90588 1.07846 7.5767L1.07818 7.57686ZM18.7281 1.81872L18.7283 1.81943C18.6065 1.88993 18.6178 2.25487 18.7344 2.78822C19.0528 4.243 20.2153 6.25691 21.316 7.25988C21.4322 7.36562 21.9705 7.85324 22.1507 7.74924L23.4283 7.0126C23.2619 6.90633 23.091 6.77335 22.9184 6.61616C21.7006 5.50623 20.4445 3.33172 20.092 1.72117C20.0424 1.4933 20.0124 1.27932 20.0037 1.08242L18.7281 1.81872ZM16.5862 3.05543L17.8617 2.31897C17.8704 2.51604 17.9003 2.73002 17.95 2.95772C18.3028 4.56932 19.557 6.74169 20.7764 7.85271C20.9489 8.01008 21.1198 8.14306 21.2863 8.24916L20.0101 8.98617C19.8878 9.05631 19.5773 8.86422 19.1739 8.4968C18.0771 7.49721 16.91 5.47705 16.5923 4.02514C16.4757 3.49144 16.4643 3.12544 16.5862 3.05531L16.5862 3.05543ZM19.1442 9.48623C18.9777 9.37995 18.8068 9.24697 18.6343 9.08978C17.4143 7.97803 16.1607 5.80693 15.8079 4.19434C15.7582 3.96647 15.7283 3.75249 15.7196 3.55559C15.2943 3.80125 14.8693 4.04709 14.4441 4.29277C14.3223 4.36327 14.3335 4.72821 14.4501 5.26156C14.7684 6.71493 15.9332 8.73203 17.0317 9.73322C17.148 9.83897 17.687 10.3271 17.8668 10.2235L19.1442 9.48623ZM20.8706 0.582646C20.992 0.512504 21.3021 0.70459 21.7053 1.07201C22.8035 2.07283 23.9685 4.08871 24.2869 5.54367C24.4037 6.07701 24.4147 6.44214 24.293 6.51246L24.285 6.51726C24.1568 6.57334 23.8517 6.38161 23.4582 6.02307C22.3598 5.02188 21.1945 3.00478 20.8766 1.55141C20.76 1.01807 20.7488 0.652941 20.8706 0.582622L20.8706 0.582646ZM3.42893 10.2245L2.02401 11.0356L3.16602 23.4711C3.22352 24.0947 3.75295 24.5684 4.39257 24.5684H13.457C14.0966 24.5684 14.6264 24.0943 14.6839 23.4711L15.9003 10.2248L3.42893 10.2245ZM11.8654 7.19159L11.9414 7.3235C12.0523 7.51487 12.2974 7.58038 12.489 7.46947C12.6804 7.35856 12.7459 7.11343 12.635 6.92187L12.0833 5.96661C11.9724 5.77524 11.7273 5.70973 11.5357 5.82064C11.3443 5.93154 11.2788 6.17668 11.3897 6.36824L11.4652 6.49909L8.9331 7.96098C8.74173 8.07099 8.67551 8.31541 8.78552 8.50694C8.89554 8.69831 9.13995 8.76453 9.33148 8.65452L11.8654 7.19159ZM13.2169 13.0782L12.538 20.4715H11.158L11.8369 13.0782H13.2169ZM9.62142 13.0782L9.60273 20.4715L8.22861 20.4714L8.24731 13.0781L9.62142 13.0782ZM4.38646 13.0782H5.76645L6.4454 20.4715H5.06541L4.38646 13.0782ZM5.23685 5.1759L8.4054 3.34637L7.94256 2.54652C7.92743 2.52053 7.88969 2.50931 7.86352 2.52445L4.78876 4.30056C4.77114 4.31551 4.76384 4.34204 4.76989 4.36411L5.23685 5.1759Z" fill="#79BC24"/>
</svg>
