<svg width="52" height="52" viewBox="0 0 52 52" fill="none" xmlns="http://www.w3.org/2000/svg">
<path d="M1.75537 7.25859C4.83296 0.224087 22.8589 -1.09488 25.9365 7.25859C23.2985 14.7327 4.83296 14.7327 1.75537 7.25859Z" fill="#55AC37"/>
<path d="M50.1176 7.3242C47.04 0.289701 29.0141 -1.02927 25.9365 7.3242C28.5745 14.7983 47.04 14.7983 50.1176 7.3242Z" fill="#55AC37"/>
<path d="M2.19531 5.56103C5.21695 0.671994 22.9151 -0.2447 25.9367 5.56103C23.3467 10.7556 5.21695 10.7556 2.19531 5.56103Z" fill="#9ED44A"/>
<path d="M50.5573 5.56103C47.4237 0.671994 29.0701 -0.2447 25.9365 5.56103C28.6224 10.7556 47.4237 10.7556 50.5573 5.56103Z" fill="#9ED44A"/>
<path d="M50.5574 26.1639C50.5574 29.3971 49.9206 32.5987 48.6833 35.5858C47.446 38.573 45.6324 41.2872 43.3462 43.5734C41.06 45.8596 38.3457 47.6732 35.3586 48.9105C32.3715 50.1478 29.1699 50.7846 25.9367 50.7846C22.7034 50.7846 19.5019 50.1478 16.5147 48.9105C13.5276 47.6732 10.8134 45.8596 8.52717 43.5734C6.24091 41.2872 4.42736 38.573 3.19006 35.5858C1.95275 32.5987 1.31592 29.3971 1.31592 26.1639H25.9367H50.5574Z" fill="#67A5D2"/>
<path d="M40.8849 26.1639C40.8849 28.8197 40.3618 31.4496 39.3454 33.9034C38.3291 36.3571 36.8394 38.5866 34.9614 40.4646C33.0834 42.3426 30.8539 43.8322 28.4002 44.8486C25.9465 45.865 23.3166 46.3881 20.6607 46.3881C18.0049 46.3881 15.3749 45.865 12.9212 44.8486C10.4675 43.8322 8.23804 42.3426 6.36004 40.4646C4.48206 38.5866 2.99235 36.3571 1.976 33.9034C0.959637 31.4496 0.436523 28.8197 0.436523 26.1639H20.6607H40.8849Z" fill="#87D1EE"/>
<path d="M11.8677 26.1639H1.31595C1.1694 28.069 1.40388 32.9346 3.51423 37.1553C5.62458 41.376 9.37629 44.776 10.9884 45.9484L13.0623 45.1708C13.9822 44.8257 14.716 44.1115 15.0859 43.2012L18.2545 35.4015C19.194 33.0887 17.4922 30.5604 14.9959 30.5604H13.6263C12.655 30.5604 11.8677 29.7731 11.8677 28.8018V26.1639Z" fill="#9ED44A"/>
<path d="M32.0918 28.8018V26.1639H47.4798L45.2815 33.638C43.6694 35.2501 39.7418 39.0018 38.6866 39.3536C37.6315 39.7053 36.7815 38.6208 36.4884 38.0346L36.0487 31.4398H34.7297C33.2728 31.4398 32.0918 30.2587 32.0918 28.8018Z" fill="#55AC37"/>
<mask id="mask0_189_316" style="mask-type:alpha" maskUnits="userSpaceOnUse" x="32" y="26" width="16" height="14">
<path d="M32.0918 28.8018V26.1639H47.4798L45.2815 33.638C43.6694 35.2501 39.7418 39.0018 38.6866 39.3536C37.6315 39.7053 36.7815 38.6208 36.4884 38.0346L36.0487 31.4398H34.7297C33.2728 31.4398 32.0918 30.2587 32.0918 28.8018Z" fill="#8EC040"/>
</mask>
<g mask="url(#mask0_189_316)">
<path d="M40.8849 26.1638C40.8849 28.8197 40.3618 31.4496 39.3454 33.9033C38.3291 36.357 36.8394 38.5865 34.9614 40.4645C33.0834 42.3425 30.8539 43.8322 28.4002 44.8485C25.9465 45.8649 23.3166 46.388 20.6607 46.388C18.0049 46.388 15.3749 45.8649 12.9212 44.8485C10.4675 43.8322 8.23804 42.3425 6.36004 40.4645C4.48206 38.5865 2.99235 36.357 1.976 33.9033C0.959637 31.4496 0.436523 28.8197 0.436523 26.1638H20.6607H40.8849Z" fill="#9ED44A"/>
</g>
<path fill-rule="evenodd" clip-rule="evenodd" d="M27.0262 7.01339C28.7699 3.77855 33.2024 2.28311 38.0221 2.43248C40.3912 2.50591 42.7613 2.97971 44.7824 3.78182C46.8143 4.58828 48.4251 5.69863 49.3634 6.99703C49.4775 7.15487 49.4775 7.36245 49.3634 7.52028C48.4251 8.81869 46.8143 9.92903 44.7824 10.7355C42.7613 11.5376 40.3912 12.0114 38.0221 12.0849C33.2024 12.2343 28.7699 10.7388 27.0262 7.50394C26.9441 7.35158 26.9441 7.16573 27.0262 7.01339ZM50.7888 5.96695C49.587 4.30402 47.6465 3.02649 45.4312 2.14723C43.2048 1.26363 40.6316 0.753895 38.0766 0.674702C33.365 0.52867 28.381 1.85629 25.9366 5.42674C23.4922 1.85629 18.5082 0.52867 13.7966 0.674702C11.2415 0.753895 8.66835 1.26363 6.44203 2.14723C4.22666 3.02649 2.28612 4.30402 1.08436 5.96695C0.52596 6.73963 0.52596 7.77769 1.08436 8.55036C2.28612 10.2133 4.22666 11.4908 6.44203 12.3701C8.66835 13.2537 11.2415 13.7634 13.7966 13.8426C17.9983 13.9729 22.4166 12.9311 25.0573 10.1721V25.2846H1.31584C0.830203 25.2846 0.436523 25.6783 0.436523 26.1639C0.436523 29.5126 1.09611 32.8285 2.37759 35.9223C3.65909 39.0161 5.53741 41.8272 7.90531 44.1952C10.2732 46.5631 13.0843 48.4414 16.1781 49.7229C19.2719 51.0043 22.5878 51.6639 25.9366 51.6639C29.2853 51.6639 32.6012 51.0043 35.6951 49.7229C38.7888 48.4414 41.6 46.5631 43.9679 44.1952C46.3357 41.8273 48.2141 39.0161 49.4956 35.9223C50.777 32.8285 51.4366 29.5126 51.4366 26.1639C51.4366 25.6783 51.0429 25.2846 50.5573 25.2846H26.8159V10.1721C29.4566 12.9311 33.8749 13.9729 38.0766 13.8426C40.6316 13.7634 43.2048 13.2537 45.4312 12.3701C47.6465 11.4908 49.587 10.2133 50.7888 8.55036C51.3472 7.77769 51.3472 6.73963 50.7888 5.96695ZM4.00235 35.2494C2.92153 32.64 2.31587 29.861 2.21144 27.0432H10.9883V28.8018C10.9883 30.2587 12.1693 31.4398 13.6262 31.4398H15.1183C17.0519 31.4398 18.3284 33.4513 17.5052 35.2009L14.141 42.3497C13.5486 43.6085 12.3469 44.4553 10.9845 44.6055C10.3456 44.0875 9.73272 43.5355 9.14886 42.9516C6.94426 40.7471 5.19547 38.1298 4.00235 35.2494ZM12.7469 28.8018V27.0432H31.2125V28.5087C31.2125 30.6131 32.9184 32.3191 35.0228 32.3191C35.3465 32.3191 35.609 32.5815 35.609 32.9052V37.4532C35.609 39.6651 38.1676 40.8948 39.8949 39.5131L43.8958 36.3124C45.3045 35.1853 46.286 33.6107 46.6774 31.8494L47.7454 27.0432H49.6617C49.5573 29.861 48.9516 32.64 47.8708 35.2494C46.6777 38.1298 44.929 40.7471 42.7243 42.9516C40.5198 45.1562 37.9025 46.905 35.0221 48.0981C32.1416 49.2912 29.0544 49.9053 25.9366 49.9053C22.8188 49.9053 19.7316 49.2912 16.8511 48.0981C15.4265 47.508 14.0663 46.782 12.7886 45.9321C14.0612 45.3913 15.1214 44.3966 15.7323 43.0985L19.0964 35.9498C20.4686 33.0337 18.3411 29.6811 15.1183 29.6811H13.6262C13.1406 29.6811 12.7469 29.2874 12.7469 28.8018ZM45.9439 27.0432H32.9711V28.5087C32.9711 29.6419 33.8896 30.5604 35.0228 30.5604C36.3178 30.5604 37.3676 31.6102 37.3676 32.9052V37.4532C37.3676 38.1905 38.2205 38.6003 38.7963 38.1398L42.7972 34.9391C43.8929 34.0624 44.6563 32.8378 44.9606 31.4679L45.9439 27.0432ZM13.8511 2.43248C18.6707 2.28311 23.1032 3.77855 24.847 7.01339C24.9291 7.16573 24.9291 7.35158 24.847 7.50394C23.1032 10.7388 18.6707 12.2343 13.8511 12.0849C11.482 12.0114 9.11182 11.5376 7.09077 10.7355C5.05883 9.92903 3.44806 8.81869 2.50973 7.52028C2.39568 7.36245 2.39568 7.15487 2.50973 6.99703C3.44806 5.69863 5.05883 4.58828 7.09077 3.78182C9.11182 2.97971 11.482 2.50591 13.8511 2.43248Z" fill="black"/>
<path fill-rule="evenodd" clip-rule="evenodd" d="M5.8739 28.8628C6.35193 28.7773 6.80883 29.0954 6.89443 29.5734C7.18226 31.181 7.67252 32.7457 8.35348 34.23C8.55598 34.6715 8.3623 35.1934 7.92091 35.3959C7.4795 35.5985 6.95752 35.4048 6.75504 34.9634C6.01216 33.344 5.47734 31.6371 5.16333 29.8834C5.07774 29.4054 5.39587 28.9485 5.8739 28.8628Z" fill="white"/>
</svg>
