<svg width="18" height="18" viewBox="0 0 18 18" fill="none" xmlns="http://www.w3.org/2000/svg">
<path fill-rule="evenodd" clip-rule="evenodd" d="M12.273 11.4631C12.5288 11.4631 12.7741 11.565 12.9546 11.7463L16.9006 15.7086C17.3095 16.1172 17.3095 16.7849 16.9006 17.1935C16.4918 17.6021 15.8237 17.6021 15.4148 17.1935L11.4589 13.2399C11.2783 13.0594 11.1768 12.8146 11.1768 12.5593V12.287C11.1768 12.2124 11.1479 12.1407 11.0961 12.087C10.9902 11.9773 10.8176 11.9697 10.6979 12.064C9.32382 13.1461 7.50734 13.6888 5.58268 13.3666C2.81053 12.8982 0.596798 10.5861 0.257758 7.79568C-0.260774 3.58009 3.28918 0.032225 7.50724 0.550453C10.2993 0.889295 12.6128 3.10173 13.0815 5.87226C13.4038 7.79571 12.8608 9.61107 11.7782 10.9843C11.6837 11.104 11.6914 11.2767 11.8012 11.3826C11.8549 11.4343 11.9265 11.4631 12.001 11.4631H12.273ZM2.20219 6.97844C2.20219 9.45996 4.20651 11.4631 6.68948 11.4631C9.17245 11.4631 11.1768 9.45996 11.1768 6.97844C11.1768 4.49693 9.17245 2.49378 6.68948 2.49378C4.20651 2.49378 2.20219 4.49693 2.20219 6.97844Z" fill="#9A9A9A"/>
</svg>
