<svg width="25" height="25" viewBox="0 0 25 25" fill="none" xmlns="http://www.w3.org/2000/svg">
<path d="M19.7019 14.4684C17.7419 14.4684 16.0538 15.6523 15.3099 17.3403L9.61391 14.1723C9.92587 13.5323 10.102 12.8203 10.102 12.0684C10.102 10.9084 9.68588 9.83642 8.99 9.00447L13.8138 5.98837C14.5018 7.22032 15.7979 8.06837 17.3018 8.06837C19.5099 8.06837 21.3018 6.27641 21.3018 4.06837C21.3018 1.86032 19.5099 0.0683594 17.3018 0.0683594C15.0938 0.0683594 13.3018 1.86032 13.3018 4.06837C13.3018 4.18033 13.3258 4.29229 13.3338 4.40444L7.71001 7.92444L6.10196 8.86835L7.26841 7.70191C6.66681 7.42762 6.00592 7.26833 5.30196 7.26833C2.65391 7.26833 0.501953 9.42029 0.501953 12.0683C0.501953 14.7164 2.65391 16.8683 5.30196 16.8683C6.61392 16.8683 7.80587 16.3403 8.67806 15.4764L14.9181 18.9484C14.91 19.0523 14.902 19.1564 14.902 19.2684C14.902 21.9164 17.054 24.0684 19.702 24.0684C22.3501 24.0684 24.502 21.9164 24.502 19.2684C24.502 16.6203 22.3501 14.4683 19.702 14.4683L19.7019 14.4684Z" fill="#79BC24"/>
</svg>
