<svg width="21" height="25" viewBox="0 0 21 25" fill="none" xmlns="http://www.w3.org/2000/svg">
<path d="M16.8117 4.11474L12.9676 0.270638C12.917 0.220009 12.8665 0.194782 12.8159 0.169556V4.26646H16.9128C16.8876 4.21583 16.837 4.1652 16.8117 4.11475L16.8117 4.11474Z" fill="#79BC24"/>
<path d="M17.0139 14.5089V5.70799H12.0824C11.6777 5.70799 11.3743 5.37917 11.3743 4.99988V0.0683594H1.61241C1.20773 0.0683594 0.904297 0.397181 0.904297 0.776474V20.0473C0.904297 20.452 1.23312 20.7554 1.61241 20.7554H10.4386C11.1214 22.6774 12.9675 24.0684 15.1172 24.0684C17.8485 24.0684 20.0993 21.8428 20.0993 19.0863C20.0991 17.038 18.8092 15.2675 17.0137 14.5088L17.0139 14.5089ZM4.8748 4.26647H8.39008C8.79476 4.26647 9.0982 4.59529 9.0982 4.97459C9.0982 5.37926 8.76938 5.6827 8.39008 5.6827H4.8748C4.47012 5.6827 4.16668 5.35388 4.16668 4.97459C4.16668 4.59513 4.49551 4.26647 4.8748 4.26647ZM4.8748 8.11039H13.0181C13.4228 8.11039 13.7262 8.43921 13.7262 8.8185C13.7262 9.22318 13.3974 9.52662 13.0181 9.52662L4.8748 9.52679C4.47012 9.52679 4.16668 9.19797 4.16668 8.81868C4.16668 8.43923 4.49551 8.11038 4.8748 8.11038V8.11039ZM4.8748 11.9545H13.0181C13.4228 11.9545 13.7262 12.2833 13.7262 12.6626C13.7262 13.0419 13.3974 13.3707 13.0181 13.3707H4.8748C4.47012 13.3707 4.16668 13.0419 4.16668 12.6626C4.16668 12.2833 4.49551 11.9545 4.8748 11.9545ZM9.27527 17.2148H4.8748C4.47012 17.2148 4.16668 16.8859 4.16668 16.5067C4.16668 16.1274 4.49551 15.7985 4.8748 15.7985H9.27527C9.67995 15.7985 9.98339 16.1274 9.98339 16.5067C9.98339 16.8859 9.67979 17.2148 9.27527 17.2148ZM15.1172 22.6521C13.1699 22.6521 11.5767 21.0588 11.5767 19.1116C11.5767 17.1642 13.17 15.5711 15.1172 15.5711C17.0646 15.5711 18.6577 17.1644 18.6577 19.1116C18.6577 21.059 17.0646 22.6521 15.1172 22.6521Z" fill="#79BC24"/>
<path d="M16.0781 17.7207L14.5355 19.2634L14.0297 18.7576C13.7515 18.4794 13.2964 18.4794 13.0182 18.7576C12.74 19.0358 12.74 19.4909 13.0182 19.7691L14.0551 20.806C14.2069 20.9577 14.384 21.0084 14.5609 21.0084C14.738 21.0084 14.9402 20.9325 15.0666 20.806L17.1405 18.7322C17.4187 18.454 17.4187 17.9989 17.1405 17.7207C16.8115 17.4425 16.3564 17.4425 16.0782 17.7207H16.0781Z" fill="#79BC24"/>
</svg>
