<svg width="23" height="22" viewBox="0 0 23 22" fill="none" xmlns="http://www.w3.org/2000/svg">
<circle cx="11.4514" cy="10.858" r="10.165" fill="#79BC24" stroke="#DEDEDE"/>
<path d="M16.1468 6.91088L9.9004 13.1802L6.85654 9.72743C6.58399 9.40944 6.03876 9.36398 5.72077 9.63654C5.40278 9.9091 5.35732 10.4543 5.62989 10.7723L9.24154 14.861L9.33242 14.9519C9.37786 14.9519 9.37786 14.9973 9.42331 14.9973L9.46875 15.0427C9.51419 15.0427 9.55963 15.0882 9.58235 15.0882H9.6278H9.78685H9.94589H9.99134C10.0368 15.0882 10.0822 15.0882 10.1049 15.0427C10.1049 15.0427 10.1504 15.0427 10.1504 14.9973C10.1958 14.9973 10.1958 14.9519 10.2413 14.9519L17.2149 7.97826C17.5329 7.66027 17.5329 7.16048 17.2149 6.84249C16.8966 6.5246 16.465 6.57004 16.147 6.91075L16.1468 6.91088Z" fill="white"/>
</svg>
