<svg width="32" height="31" viewBox="0 0 32 31" fill="none" xmlns="http://www.w3.org/2000/svg">
<path d="M24.6524 14.3741C20.3175 14.3741 16.8203 10.8766 16.8203 6.54199C16.8203 5.55677 17.0173 4.57156 17.3621 3.73413H3.61871C3.32315 3.73413 3.02758 3.73413 2.73202 3.78339C1.30346 4.02969 0.219727 5.21195 0.219727 6.64051V26.9359C0.219727 28.66 1.69755 30.1378 3.42167 30.1378H23.4705C24.0616 30.1378 24.6035 29.9408 25.0468 29.596C25.9335 28.9063 26.3276 27.9704 26.3276 26.8866V16.7879V14.1771C25.835 14.2756 25.2439 14.3741 24.6527 14.3741H24.6524ZM8.00235 7.6747C9.92351 7.6747 11.4506 9.20178 11.4506 11.1229C11.4506 13.0441 9.92351 14.5712 8.05161 14.5712C6.13044 14.5712 4.60336 12.9949 4.60336 11.1229C4.60336 9.20178 6.13044 7.6747 8.00235 7.6747ZM23.2242 25.7531C23.1749 25.8516 22.9779 25.9501 22.7316 25.9501H22.633H9.43119C8.44597 25.9501 7.46076 25.9501 6.42629 25.9009H5.04699C4.60364 25.9009 4.20956 25.9994 3.76621 25.9501H3.71695C3.66769 25.9501 3.61843 25.9501 3.61843 25.9009C3.32287 25.7038 3.91399 25.3097 4.01251 25.162C4.30808 24.8171 7.6578 20.1374 7.70706 20.0881C8.15041 19.3985 8.7908 19.0536 9.43119 19.0536C10.3671 19.0536 10.8597 20.0388 11.5987 20.4822C12.5839 21.0733 13.2243 20.2851 13.6676 19.5462C14.0124 19.0536 14.308 18.5118 14.6528 17.9699C14.8499 17.6743 15.0469 17.3295 15.2439 17.0339C15.4902 16.6891 15.6873 16.295 15.9336 15.9502L16.3769 15.2113C16.4262 15.162 16.4755 15.1128 16.4755 15.0635C16.6725 14.8172 16.8695 14.6694 17.0173 14.6694C17.1651 14.6694 17.3621 14.8172 17.5099 15.1128C19.1355 18.0192 20.7611 20.9745 22.3867 23.8322L23.1749 25.2115L23.3227 25.5071C23.2734 25.5563 23.3227 25.6548 23.2242 25.7534V25.7531Z" fill="#79BC24"/>
<path d="M24.6522 0.137817C21.1054 0.137817 18.2483 2.99493 18.2483 6.5417C18.2483 10.0885 21.1054 12.9456 24.6522 12.9456C28.1989 12.9456 31.0561 10.0885 31.0561 6.5417C31.0561 2.99493 28.1989 0.137817 24.6522 0.137817ZM28.2482 5.95057L27.46 6.64022C27.4108 6.68948 27.3122 6.68948 27.263 6.64022L25.6374 5.01462C25.5389 4.9161 25.3911 4.96536 25.3911 5.11314V10.7778C25.3911 10.8764 25.3418 10.9256 25.2433 10.9256H24.1596C24.061 10.9256 24.0118 10.8764 24.0118 10.7778V4.9161C24.0118 4.76832 23.864 4.71906 23.7655 4.81758L21.8936 6.68948C21.8443 6.73874 21.7458 6.73874 21.6965 6.68948L21.0561 5.90131C21.0069 5.85205 21.0069 5.75353 21.0561 5.70427L24.5537 2.20676C24.6029 2.1575 24.7014 2.1575 24.7507 2.20676L28.2482 5.70427C28.2975 5.80279 28.2975 5.85205 28.2482 5.95057Z" fill="#79BC24"/>
</svg>
